<?xml version="1.0" encoding="utf-8"?>
<!-- Generator: Adobe Illustrator 24.0.3, SVG Export Plug-In . SVG Version: 6.00 Build 0)  -->
<svg version="1.1" id="Layer_1" xmlns="http://www.w3.org/2000/svg" xmlns:xlink="http://www.w3.org/1999/xlink" x="0px" y="0px"
	 viewBox="0 0 3069.3 936.9" style="enable-background:new 0 0 3069.3 936.9;" xml:space="preserve">
<style type="text/css">
	.st0{fill:#FFFFFF;}
	.st1{fill-rule:evenodd;clip-rule:evenodd;fill:#FFFFFF;}
</style>
<g>
	<g>
		<polygon class="st0" points="2475.6,893.4 3012.7,893.4 3012.7,63 44.6,63 44.6,893.4 2241,893.4 2241,771.4 166.6,771.4 
			166.6,185 2890.8,185 2890.8,771.4 2475.6,771.4 		"/>
		<path class="st1" d="M2139.3,825.4c-5.7-1-11.9-1-18.7-0.5C2126.8,824.9,2132.5,825.9,2139.3,825.4z"/>
		<path class="st1" d="M2121.6,827.5c-6.2,0-11.9-1-18.7-0.5C2109.2,827.5,2114.9,829,2121.6,827.5z"/>
		<path class="st1" d="M2073.9,822.8c-6.7-0.5-6.7,0-16.6,0.5c3.1,0.5,6.7,0.5,9.9,1C2071.3,823.8,2069.2,823.3,2073.9,822.8z"/>
		<path class="st1" d="M1891.7,800c-2.6-0.5-5.2-0.5-7.8-1c-4.7,1-8.3,0-13,1C1877.7,801,1884.4,801,1891.7,800z"/>
		<path class="st1" d="M2086.3,827c3.6-0.5-10.4-1.6-14-1c-0.5,1,4.7,0.5,9.9,1.6C2082.7,827.5,2083.7,827,2086.3,827z"/>
		<path class="st1" d="M1863.2,799.5c-7.8,0-7.8-1-11.9-1.6c-3.6,1-2.1,1.6,3.1,2.6C1857.5,800,1860,800,1863.2,799.5z"/>
		<path class="st1" d="M1964.9,820.2c3.1-1-11.9-1-16.6,0C1953.5,821.3,1959.7,819.2,1964.9,820.2z"/>
		<path class="st1" d="M1785.3,796.9c-3.1,0-8.8,0.5-6.2-0.5c-4.2-0.5-8.8,0.5-13,1c-3.1-1-9.9-1.6-18.2-2.1
			c-0.5,2.1-14.5,1.6-25.9,2.6c6.2,0,12.5,0,18.2,1c0.5-1.6,3.6-1,13-1.6c0.5,0.5,1,0.5,3.6,1c5.7-0.5,11.4-0.5,16.6,0
			C1779.6,798.4,1784.8,797.9,1785.3,796.9z"/>
		<path class="st1" d="M1938.4,819.2c-2.6-0.5-5.2-0.5-7.8-1c-0.5,0.5-3.1,1-6.7,0.5C1920.3,819.2,1934.3,820.2,1938.4,819.2z"/>
		<path class="st1" d="M1910.4,825.9c-6.2-0.5-12.5,0-19.2,0.5C1897.9,827,1909.9,827,1910.4,825.9z"/>
		<path class="st1" d="M1613.5,790.6c-5.7-1-16.6-0.5-16.6,0.5C1602.1,791.1,1607.8,791.1,1613.5,790.6z"/>
		<path class="st1" d="M1848.6,824.9c-6.7,0-13-1.6-20.8,0C1834.6,825.4,1841.4,825.9,1848.6,824.9z"/>
		<path class="st1" d="M1637.9,807.8c-8.8-0.5-8.3,0.5-19.2,1c2.6,0,5.7,0,8.3,0.5C1630.7,807.8,1640.5,808.8,1637.9,807.8z"/>
		<path class="st1" d="M1777,828c-2.6,1,11.9,1,15.6,2.1C1799.3,829,1782.7,828.5,1777,828z"/>
		<path class="st1" d="M1704.9,825.9c-6.7,0-13.5-0.5-20.8,0.5c8.3,0.5,16.6,0.5,24.4,1C1715.8,827,1697.6,826.4,1704.9,825.9z"/>
		<path class="st1" d="M1480.1,796.3c3.1-1.6-11.9-0.5-16.6-0.5C1460.9,797.4,1476,796.3,1480.1,796.3z"/>
		<path class="st1" d="M1463.5,801.5c4.7,1,9.9-0.5,14,1c4.2-0.5,4.2-1,0.5-2.1C1472.4,802,1464.1,800.5,1463.5,801.5z"/>
		<path class="st1" d="M1349.4,786.5c-7.3-0.5-14.5-1-22.8-0.5C1334.3,786.5,1341.6,787,1349.4,786.5z"/>
		<path class="st1" d="M1751.1,840.5c-3.6-1-8.3-0.5-11.9-1c-7.8,0.5-2.6,1.6,3.1,2.1C1745.3,841,1748.5,841,1751.1,840.5z"/>
		<path class="st1" d="M1697.6,834.2c-5.2-1-10.9-1-16.1-1C1678.9,833.7,1692.9,835.3,1697.6,834.2z"/>
		<path class="st1" d="M1708,839.4c-1-0.5-2.6,0-4.2,0c-16.1-1.6-33.2,0-49.3-1.6c-9.3,0.5-4.2,1.6-9.3,2.6c8.8,1,7.8-1,15.1-0.5
			c7.8,0.5,2.1,1,9.9,1c1-1.6,12.5-1,19.2-1.6c4.7,1,9.3,0.5,14,1.6C1712.7,840.5,1698.6,839.9,1708,839.4z"/>
		<path class="st1" d="M1364.9,798.9c4.2,0.5-8.3,1-10.9,0.5c-4.7,1,7.8,0,9.9,1c8.8-0.5,3.6-1,6.7-1.6c-5.2-0.5-10.9-1-16.1-1
			C1349.4,798.4,1359.7,798.9,1364.9,798.9z"/>
		<path class="st1" d="M1844,862.8c-6.7-0.5-13-1.6-20.8-0.5C1829.9,862.8,1836.7,863.3,1844,862.8z"/>
		<path class="st1" d="M1845,864.8c3.6-1-10.4-1-14.5-0.5C1835.1,865.9,1840.3,864.3,1845,864.8z"/>
		<path class="st1" d="M1817,862.3c-5.7,0.5-3.6,1-6.7,1.6c3.6,0.5,6.7,0,10.4,0.5C1823.2,863.8,1821.1,863.3,1817,862.3z"/>
		<path class="st1" d="M1340,799.5c1-1.6-16.1-0.5-22.3-1.6C1311.5,800,1332.7,799.5,1340,799.5z"/>
		<path class="st1" d="M1887,879.4c-6.2-0.5-15.6,0.5-27.5,1.6C1868.9,880.4,1877.7,880.4,1887,879.4z"/>
		<path class="st1" d="M1262.2,797.4c-0.5,1,9.9,2.1,16.1,1C1278.8,797.9,1268.4,796.3,1262.2,797.4z"/>
		<path class="st1" d="M1693.4,854.5c-6.2-1-30.1-0.5-19.2,1C1681.5,854.5,1687.2,855,1693.4,854.5z"/>
		<path class="st1" d="M1555.4,837.9c-1-1.6-20.2-1.6-29.1,0c4.2,0.5,2.1,0.5-0.5,1C1535.2,839.9,1545.5,836.8,1555.4,837.9z"/>
		<path class="st1" d="M1778.6,870.6c-7.8-1-16.1-1-24.9-0.5C1762.5,869.5,1769.7,871.6,1778.6,870.6z"/>
		<path class="st1" d="M1223.2,796.3c-3.1,0-6.2,0-4.2-0.5c-13.5,1-25.9-0.5-39.4,0.5C1198.8,796.3,1207.1,799.5,1223.2,796.3z"/>
		<path class="st1" d="M1603.1,852.9c-4.2-1-9.9,0.5-14.5,0.5c2.6,0,5.7,0,8.3,0.5C1596.4,853.9,1599,853.4,1603.1,852.9z"/>
		<path class="st1" d="M1175.5,796.3c5.2-1-6.2-0.5-7.8-1c3.6,1.6-7.3,0-15.1,1c4.2,1.6,9.9-1,14.5,0.5
			C1169.8,796.9,1172.9,796.3,1175.5,796.3z"/>
		<path class="st1" d="M1150.6,795.8c-13-0.5-15.6-2.6-26.5-1.6c12.5,1-4.2,1.6,7.3,2.6C1132.4,795.3,1143.8,796.9,1150.6,795.8z"/>
		<path class="st1" d="M1592.2,863.8c-9.3-0.5-23.4,0.5-15.1,1.6C1585.5,864.8,1588.6,864.8,1592.2,863.8z"/>
		<path class="st1" d="M1080,795.3c-7.8-1-16.6-0.5-24.9-0.5c-4.2-0.5,1-1,6.7-1.6c-14-0.5-14.5,1.6-33.7,1c3.6,1,4.2,0.5,11.9,1.6
			c9.3-1-3.1-0.5-5.7-1.6C1049.9,794.8,1064.4,796.3,1080,795.3z"/>
		<path class="st1" d="M1277.7,831.1c-8.8-0.5-19.2,0.5-23.4,1C1263.2,832.7,1273.6,832.7,1277.7,831.1z"/>
		<path class="st1" d="M1404.9,849.8c-7.8,0-2.1-0.5-7.8-1c-3.6,0.5-1.6,1-2.6,1.6C1397.6,850.8,1401.3,850.3,1404.9,849.8z"/>
		<path class="st1" d="M1216,845.6c-8.8-0.5-17.6-0.5-27,0.5C1197.3,845.6,1213.4,847.2,1216,845.6z"/>
		<path class="st1" d="M1334.3,875.7c-4.7-0.5-9.3-0.5-14-1c-7.3,0.5,10.9,1,3.6,1.6C1327,876.8,1330.7,876.3,1334.3,875.7z"/>
		<path class="st1" d="M1436.5,889.8c-7.8-0.5-16.6,0-25.4,1C1419.4,890.3,1434.5,890.8,1436.5,889.8z"/>
		<path class="st1" d="M1003.2,836.8c-2.6-0.5-5.2-0.5-7.8-1c-0.5,0.5-1.6,0.5-4.2,0.5C987.1,836.8,1000.1,837.9,1003.2,836.8z"/>
		<path class="st1" d="M1282.4,880.9c-8.8-1-18.2,0-26.5-1.6c-4.2,0.5,1,1,1.6,1.6c-5.7,0.5-14.5-0.5-15.1,0.5
			c4.7,0.5,9.9-0.5,14.5,0.5C1261.6,880.4,1272.5,882,1282.4,880.9z"/>
		<path class="st1" d="M961.7,842.5c-3.6,0-6.7-0.5-10.4-0.5c-6.7,0.5-0.5,1.6,5.7,1.6C966.3,843.6,952.3,843,961.7,842.5z"/>
		<path class="st1" d="M1162,881.5c-0.5-1-27.5-1.6-29.1,0C1142.8,880.9,1152.7,880.4,1162,881.5z"/>
		<path class="st1" d="M1177,890.3c-6.7-1-13.5-0.5-20.8,0.5C1163,890.3,1169.8,890.8,1177,890.3z"/>
		<path class="st1" d="M1060.3,876.8c-6.7,0-13.5-1-20.8,0C1046.3,876.8,1053,877.3,1060.3,876.8z"/>
		<path class="st1" d="M986.6,874.2c-4.7-0.5-9.9,0-14.5-0.5c-2.1,0.5,3.1,1,5.7,1.6C980.3,874.7,983.5,874.7,986.6,874.2z"/>
		<path class="st1" d="M954.9,874.7c-5.2-1-10.9,0-16.6-0.5C935.7,874.7,950.2,875.7,954.9,874.7z"/>
		<path class="st1" d="M666.4,838.4C664.3,838.4,665.3,838.9,666.4,838.4c-3.1,0.5-5.7,0-8.3,0c-5.2,0.5-3.1,1.6-10.9,1
			c-7.3,1,10.9,0.5,3.6,1C657.5,840.5,677.3,839.4,666.4,838.4z"/>
		<path class="st1" d="M643,839.9c-2.6-0.5-5.2-0.5-8.3,0c-3.1-0.5-5.7-0.5-3.6-1c-3.1-0.5-7.3,0.5-10.9,0.5c3.1,0.5,6.7,1,9.9,1
			C634.7,839.9,638.8,841,643,839.9z"/>
		<path class="st1" d="M597.3,835.3c-5.2-0.5-10.9,0-16.6,0.5C585.9,836.3,591.6,835.8,597.3,835.3z"/>
		<path class="st1" d="M842.3,871.1c-8.8-0.5-8.8,1.6-5.2,2.1C848,872.6,840.7,871.6,842.3,871.1z"/>
		<path class="st1" d="M857.9,873.7c-10.9-0.5-25.9-1-31.1,0.5C837.1,874.2,847,875.7,857.9,873.7z"/>
		<path class="st1" d="M827.8,871.1c-6.7,0-13.5-0.5-20.8,0.5c6.7,0.5,14,0,20.2,0.5C829.3,871.6,825.2,871.1,827.8,871.1z"/>
		<path class="st1" d="M794.5,866.4c-18.2,0.5-22.3-0.5-11.4,2.1C792,868,791.4,867.4,794.5,866.4z"/>
		<path class="st1" d="M535,835.3c-6.7-0.5-13.5-1-20.8,0C521,835.3,527.8,835.8,535,835.3z"/>
		<path class="st1" d="M434.4,832.2c-20.2,1.6-36.8,0-48.8,2.1c15.1,0,30.6,0,46.2-0.5c2.1,0.5-2.1,0.5-4.7,1
			C441.1,835.3,442.1,833.7,434.4,832.2z"/>
		<path class="st1" d="M668.9,868.5c-10.9-0.5-4.7,2.1-10.9,1C657,871.1,672.6,869,668.9,868.5z"/>
		<path class="st1" d="M658.6,869c-6.2-0.5-12.5-0.5-18.7,0.5C645.6,870,651.8,869.5,658.6,869z"/>
		<path class="st1" d="M338.3,833.7c-2.6-0.5-5.2-0.5-7.8-1c-4.2,0.5-2.1,1-6.7,1C329,833.7,333.2,834.2,338.3,833.7z"/>
		<path class="st1" d="M522.1,861.7c-3.1,0.5,1.6,1-6.7,1.6C525.2,863.8,537.1,862.3,522.1,861.7z"/>
		<path class="st1" d="M227.3,883c-9.9-1.6-18.2,0-19.2,1C214.3,884.1,221.1,883.5,227.3,883z"/>
		<path class="st1" d="M57.1,745.5c1-8.8-1-8.3,0-18.7c1-4.2,0.5,8.3,1,10.9c0.5-8.3,0-15.6-1-19.2c0,5.2-0.5,7.3-1,7.8
			c-1-9.3,0.5-17.6-0.5-27c0,4.7,0,9.9-1,14c1,11.9,0.5,22.8,0,29.1C55.5,742.9,56,734.1,57.1,745.5z"/>
		<path class="st1" d="M57.1,666.6c0.5-2.6,0.5-5.2,1-7.8c-1-8.3-0.5-8.3-1.6-13c-1,7.3,1,19.7-0.5,12.5
			C55.5,663.5,57.1,666.1,57.1,666.6z"/>
		<path class="st1" d="M58.6,636.5c-0.5,0-1.6-7.3-2.1-13c-0.5,2.1-0.5,4.2-1,5.7c0.5,2.1,0.5,4.2,0,6.2c1,0.5,0.5-2.1,1,6.7
			C57.6,638,58.1,640.6,58.6,636.5z"/>
		<path class="st1" d="M59.6,603.8c-1-7.3,0-14-1-21.3c-0.5,8.8,0.5,18.2-1,26.5C59.1,613.1,58.6,605.9,59.6,603.8z"/>
		<path class="st1" d="M57.6,569.5c0.5,6.2,1,8.8,1.6,2.6c0-2.6,0-5.7-0.5-8.3C58.1,563.8,58.1,565.9,57.6,569.5z"/>
		<path class="st1" d="M58.1,563.3c0.5-3.6,1-1.6,1.6-5.7c-0.5-4.2-1-2.1-0.5-6.7c-0.5-2.6-1,3.1-1.6,5.7
			C57.6,559.2,58.1,561.2,58.1,563.3z"/>
		<path class="st1" d="M56,550.3c0.5,1.6,2.1-14,1-20.2C57.1,536.8,56,543.1,56,550.3z"/>
		<path class="st1" d="M59.6,431c-1-5.2-0.5-9.9-1-15.1c-1,4.7,0,9.9-1,14C58.1,434.6,58.6,439.3,59.6,431z"/>
		<path class="st1" d="M59.1,366.6c0.5-5.2,0.5-10.9,0-16.6l-1,7.8C58.6,360.9,58.6,364,59.1,366.6z"/>
		<path class="st1" d="M59.6,327.7c0.5-8.3,0.5-16.6,0.5-24.9c-0.5-6.7-1,12.5-1.6,5.7c-0.5,5.2,0.5,4.2,0.5,6.7
			C59.6,318.9,58.6,323,59.6,327.7z"/>
		<path class="st1" d="M57.1,299.7c0.5-4.7-0.5-9.9,0-14.5c-1,0.5-1,6.2-1.6,14C56,302.8,56.5,294,57.1,299.7z"/>
		<path class="st1" d="M61.2,253.5c-1.6-13,0-24.9,0-37.4c-1.6-8.8-1.6,14.5-3.1,19.2c1.6,2.6,1.6-0.5,2.1,13.5
			c-1,8.3-2.1,7.3-2.1,17.6C59.6,269,59.6,264.4,61.2,253.5z"/>
		<path class="st1" d="M57.6,249.8c0.5-8.8,0-18.2,0.5-27C57.6,223.9,56.5,241.5,57.6,249.8z"/>
		<path class="st1" d="M56.5,205.7c0.5-3.1,0.5-6.7,1-9.9c-0.5-6.2-1.6,4.7-2.1-3.1c0,4.2,0,8.3,0.5,12.5
			C56.5,197.4,56,196.9,56.5,205.7z"/>
		<path class="st1" d="M57.1,114.9c0.5-5.2,0.5-11.4,1-17.6c-0.5,2.1-1-7.8-1.6,1C57.1,100.9,56,104,57.1,114.9z"/>
		<path class="st1" d="M797.7,84.8c9.9,1,20.8,0.5,31.1-0.5c-8.8-0.5-17.6-1-26.5-1.6C799.2,83.2,799.7,83.8,797.7,84.8z"/>
		<path class="st1" d="M1000.6,81.2c4.7,1,9.9,0,14.5,0.5C1018.2,80.6,1004.7,80.1,1000.6,81.2z"/>
		<path class="st1" d="M1211.3,83.2c-0.5,1,17.6,1,24.9,0C1227.9,82.7,1219.6,83.2,1211.3,83.2z"/>
		<path class="st1" d="M1312.5,84.3c9.9-0.5,28-0.5,31.7-1.6C1334.8,82.2,1316.7,82.7,1312.5,84.3z"/>
		<path class="st1" d="M1516.5,82.7c7.3,0.5,15.1,0,22.8,0.5C1540.3,82.2,1523.2,81.7,1516.5,82.7z"/>
		<path class="st1" d="M1730.8,86.9c1-0.5,6.2-1,6.7-1.6c-4.2,0-8.3,0-12.5,0.5C1728.7,86.4,1726.7,86.4,1730.8,86.9z"/>
		<path class="st1" d="M2426.8,173.5c16.1,0.5,33.7-1.6,49.8-0.5C2469.3,170.9,2442.4,172.5,2426.8,173.5z"/>
		<path class="st1" d="M2479.2,172c6.7,1,13.5,0.5,20.8-0.5C2493.2,171.5,2486.5,171.5,2479.2,172z"/>
		<path class="st1" d="M2120.1,83.8c2.1-0.5,2.1-1-1.6-1c14,0,17.6,0,33.2-0.5c-13.5-0.5-27.5-1-41.5,0
			C2118,82.2,2115.4,82.7,2120.1,83.8z"/>
		<path class="st1" d="M2184.9,87.4c0-0.5,9.9-1.6,3.1-2.1C2179.7,85.3,2178.7,86.4,2184.9,87.4z"/>
		<path class="st1" d="M2168.3,82.7c-2.1,0.5,3.1,1,5.7,1.6c5.7-0.5,7.8-1,8.8-1.6C2178.2,81.7,2173,83.2,2168.3,82.7z"/>
		<path class="st1" d="M2664,79.1c7.8,0.5,11.4-0.5,15.1-1c-4.2,0-8.3,0-12.5,0.5C2668.1,78.6,2665,78.6,2664,79.1z"/>
		<path class="st1" d="M2696.2,76c5.2,0.5,13-1,13-1.6C2700.3,74.4,2696.2,74.9,2696.2,76z"/>
		<path class="st1" d="M2733,77.5c17.6,0.5,35.8,0,54,0c-3.6-1,7.8-1,15.1-1.6C2777.1,76,2760.5,77,2733,77.5z"/>
		<path class="st1" d="M2795.3,77c7.3,0.5,15.6-0.5,22.8-0.5C2810.9,76,2803.6,76,2795.3,77z"/>
		<path class="st1" d="M2826.9,76.5c8.3,0,16.6,0.5,24.9,0C2850.3,75.5,2835.2,74.9,2826.9,76.5z"/>
		<path class="st1" d="M2848.7,78c10.4,0,14,0.5,20.2,1c6.2-1,10.4-1,5.2-2.6C2872.1,78.6,2857,77.5,2848.7,78z"/>
		<path class="st1" d="M2866.9,64.6c-3.1,1,11.9,0.5,16.6,0c-3.1-0.5-6.7-0.5-9.9-1C2869,64,2871.1,64.6,2866.9,64.6z"/>
		<path class="st1" d="M3001.3,90C3001.3,86.4,3000.8,87.9,3001.3,90c-0.5,2.6-1,5.2-1,7.8c0.5,5.2,0.5,17.1,0.5,31.1s0,29.1,1,41
			c0.5-4.7,0.5-5.7,0.5-3.1c-0.5-18.2-0.5-35.8-1.6-53.5c1.6-19.2,1,8.8,2.1,7.8c1-8.8-1.6-18.2-0.5-27
			C3002.4,87.9,3000.8,110.7,3001.3,90z"/>
		<path class="st1" d="M2917.8,64c25.9,0,51.9,0,79.9-1C2971.2,63,2944.2,63.5,2917.8,64z"/>
		<path class="st1" d="M3001.8,187c0,6.7-1.6,6.2-1.6,16.1c1-3.1,1.6-1,2.1,9.3C3002.9,203.6,3002.4,195.3,3001.8,187z"/>
		<path class="st1" d="M3003.9,202.1c-0.5,9.3,0,19.7,1,29.6C3005,217.7,3004.4,214.5,3003.9,202.1z"/>
		<path class="st1" d="M3003.4,295.5c0.5,2.6,1-5.2,1-1.6c0-14-2.1-28.5-0.5-42C3001.3,251.4,3004.4,282,3003.4,295.5z"/>
		<path class="st1" d="M3005,248.3c-1,14,0.5,29.6,1.6,44.1C3007.6,278.4,3005.5,262.8,3005,248.3z"/>
		<path class="st1" d="M3008.6,283.1c-1.6-1.6,0,15.1,0.5,20.8C3009.6,297.1,3008.1,289.8,3008.6,283.1z"/>
		<path class="st1" d="M3007,290.8c-0.5,11.4-1,22.8,0.5,35.3C3006.5,314.2,3008.6,302.8,3007,290.8z"/>
		<path class="st1" d="M3005,350c1-11.9,2.1,3.1,1.6,10.9C3006,366.1,3005.5,355.7,3005,350c-1,5.2,0.5,11.4-0.5,16.1
			c2.1,4.7,4.7,32.7,5.7,45.7c1.6,0-1-28.5-2.1-30.1c1.6-1,0.5-15.6,1.6-9.9c-1.6-16.1-3.1-29.6-5.7-51.9
			C3002.9,329.8,3003.9,339.6,3005,350z"/>
		<path class="st1" d="M3007.6,407.1c-0.5-2.1-1,3.1-1.6,5.7c0,5.7,1,11.4,1,17.1c0.5,1,1-2.1,1,2.6c0-4.2,0.5-8.3,0.5-12.5
			C3008.6,414.4,3006.5,418,3007.6,407.1z"/>
		<path class="st1" d="M3005.5,431c0,6.2,0.5,21.3,1.6,10.9C3006.5,434.1,3006,436.2,3005.5,431z"/>
		<path class="st1" d="M3008.6,444.5c-1-4.2,0,9.3-1,11.9c1,2.1,1,0,1.6,8.8C3009.6,459,3008.1,451.7,3008.6,444.5z"/>
		<path class="st1" d="M2229.1,829.6c3.1,0.5-6.7,1,1.6,1.6c3.6-0.5,6.7,0,10.9-0.5c-16.6,0,8.8-4.7-9.9-1
			c-17.6-0.5-35.8,0-53.5-1.6c-8.3,1-10.9,0.5-14.5-0.5c-2.1,0.5,2.6,0.5-0.5,1c-7.8,0.5-2.1-1-9.9-1.6c-2.1,1-6.2,1-17.6,3.1
			c7.3,0.5,15.6-0.5,23.4-1c5.7,1.6,12.5,0.5,18.7,0.5c13,2.6,33.7,1,40.5,2.1c9.9-1-9.9-2.1-14-2.1
			C2212.4,828.5,2220.2,830.6,2229.1,829.6z"/>
		<path class="st1" d="M2052.6,819.2c-10.9-0.5-21.8-0.5-33.2,0c7.3,0.5,2.1,1,7.8,1.6C2031.3,818.1,2042.7,819.7,2052.6,819.2z"/>
		<path class="st1" d="M2000.7,818.7c-6.2,0-8.3,0.5-2.6,1c-3.1,0-5.2-0.5-8.3-0.5c-7.8,0.5-5.7,1-10.9,1.6
			c-12.5,0-24.9-0.5-37.4,0.5c-14-2.6-30.1-0.5-45.2-1c1.6-2.1,23.4-0.5,25.9-2.6c-23.4,0.5-36.3-1-62.3,0.5
			c-5.7-1-9.3-2.1-20.8-0.5c-5.2-1-2.1-2.6,7.3-2.6c-3.1-0.5-6.7,0-10.4-0.5c3.6,1-9.9,1.6-1,2.6c-14-1.6-29.1,0.5-43.6,0
			c19.2-1,31.7-2.1,36.3-2.1c-5.7-2.1-30.6,0.5-44.1,1c-0.5-1.6-15.1-1-22.3-1c-2.1,0.5,2.6,0.5-0.5,1c-2.1,0-4.2,0-6.2,0
			c-0.5-0.5,3.1-1-1.6-1c-17.1,0-34.8,1-52.4,1c-1-0.5,0-0.5-1.6-0.5c18.7-0.5,24.9-1,42-1.6c-14-1-29.1-0.5-43.1-1
			c-5.2,1,6.2,0.5,7.8,1c-3.6,0.5-7.3,0.5-10.9,0.5c-9.3-1-2.1-2.1-11.4-2.1c-4.2,0.5-2.1,1-6.7,1c2.1,0,4.2,0,6.2,0
			c4.7,0.5,2.6,2.6,7.8,1c11.9,1.6-3.1,2.1-10.9,1.6c10.4-0.5-11.4-1-3.1-2.1c-5.2-0.5-11.4,1-17.1,1c-5.7-1,9.3-1.6,15.1-1.6
			c5.2-0.5-4.7-1.6,1-2.1c-7.3-0.5-15.6,0.5-22.8-0.5c1-1,8.3-0.5,13-2.1c-7.3-1.6-15.6,0.5-22.3-1c-4.2,1,9.3,0.5,11.9,1.6
			c-6.2,0-12.5,0-18.7-0.5c8.8,1,3.6,1.6,1,2.6c-2.1,0-4.2,0-6.2,0c-8.8-0.5,5.7-1-3.6-1.6c-9.9,1.6-57.6,0-53.5-2.1
			c-5.7,1-13,0.5-13,1.6c-10.4-1-3.1-1.6-9.3-2.1c10.4,0.5,21.3-0.5,31.1,0c-5.7-1-30.1-1.6-43.1-1c-3.6-0.5,3.6-1-3.6-1.6
			c-8.8,0.5-18.7,1.6-31.1,0c-1.6,1-10.4,1-5.2,2.6c-5.7-1-14,0.5-24.4-0.5c5.2,2.1-17.1,0.5-17.1,2.1c-14.5-1,9.3-1.6-1-2.1
			c-6.7,1-13,1-18.7,0.5c-0.5-0.5,1.6-1,2.6-1.6c21.8-0.5,42,0.5,58.1-0.5c-4.7-1-9.9,0.5-14-1c-28,2.6-53.5-2.1-81,0.5
			c-25.4-2.6-74.2-0.5-86.2-3.1c-8.3,0-16.6-0.5-24.9-0.5c-5.2,2.1-18.7,0.5-29.6,1c-0.5-0.5,3.1-1-1.6-1c-1,1.6-16.1,1-14.5,0
			c-23.4,1.6-45.2-1-68.5,0c6.2,0.5-5.2,1-8.8,1.6c-3.6-0.5,8.8-1,6.7-1.6c-18.7-1.6-38.9,0-58.1,0c1-2.1-21.8-2.1-26.5-1
			c-3.6-1-8.3-0.5-11.9-1c-11.4,2.6-52.4-1.6-77.3,1c-17.1-3.1-52.4,1.6-65.9-1.6c6.2,0.5,12.5,0,18.7,0c-4.2-1.6-25.4,0.5-41.5,0
			c-6.7-0.5-29.6-2.1-31.1-0.5c-4.2,0.5-7.8-1-11.9-1c-15.1,1-29.1,0-44.1,1c-16.6-1-53.5-1-80.4-1c-106.9-1.6-213.8-2.6-321.3-3.6
			c-53.5-0.5-106.9-1-160.9-1.6c-27,0-53.5-0.5-80.4-0.5H165h-5.7h-11.4v-13v-3.1v-7.3v-22.3c0-29.6,0.5-59.2,0.5-88.7
			c0-59.2,0.5-117.8,0.5-177c0-103.3,0-206.6,0.5-309.8c233.5-0.5,467.6-0.5,701.2-1c5.7,0.5,0.5,1-2.6,1.6
			c-51.9-2.1-105.4,1-157.8-0.5c-4.2,1-6.7,1-15.1,1c-2.1-0.5,3.6,0,6.7-0.5c-8.3-0.5-17.1,1-24.9,0c-6.2,0.5,1,1.6-5.2,2.1
			c-21.8-2.6-57.1-1.6-86.7-0.5c-23.4-0.5-46.7-1-70.6,0c-2.6-0.5-3.1-0.5-1.6-0.5c-36.8,1.6-88.2-0.5-112.6,1.6
			c-5.7-0.5-0.5-1-7.8-1c-2.1,0.5,1.6,0.5,3.6,1c-46.2-1.6-84.6,1.6-132.3-0.5c-4.7,1.6-28,0-39.4,0c-9.3,0-17.6,0.5-24.9,0.5
			c-3.6,0-6.7,0-9.3,0c-1.6,0-2.6,0-4.2,0c-1,0-0.5,0-1,0h-0.5c-3.6,1-6.7,1-11.4-0.5c-1.6,0.5,2.1,1,0.5,1.6h-0.5c0,0.5-1,0.5-1,0
			c0.5,2.1,0.5,3.1,0.5,4.2c0,1,0,2.1,0,3.6c-0.5,0.5-0.5,0-1-0.5c0.5,2.1,0.5,3.6,0.5,5.2c0,3.1,0,6.7,0,9.9c0,3.6,0,7.3,0.5,10.9
			c-2.1,1,0,1-1,11.9c0.5,0.5,1,5.7,1,10.9c-0.5,0-1,2.1-1.6,5.7c2.1,10.4-0.5,30.1,1,50.3c-0.5,3.6-1,3.6-1,1.6
			c0.5,24.4,0,81,1,87.7c0,12.5-1.6,24.4,0.5,37.4c-1,10.9-2.1,31.7-0.5,36.8c-1,77.8,0,149.5-1,229.9c0.5,4.2,0.5,2.1,1,4.7
			c-0.5,6.2-0.5,8.3-1.6,18.2c0.5,18.7,0.5,40.5,0,63.3c0,2.6,0,5.7,0,8.3v2.1c0,1.6,0,3.1,0,4.2c0,3.1,0,5.7,0,8.3
			c2.1,0,4.2-0.5,5.7-0.5c0.5,0.5,0,1,0.5,1l7.8-0.5h1h3.1h7.3c4.7,0,9.9,0,14.5,0.5c-0.5-0.5-4.7-3.1,14-3.6
			c5.2,1,0.5,1.6,11.4,2.1c2.6,1-11.4,1.6-15.1,0.5c-7.8,1,13.5,1.6,12.5,0.5c25.4,2.1,52.9-0.5,78.4,1.6c6.2-1.6,23.9-1,35.3,0.5
			c4.7-0.5,2.6-0.5,0.5-1c23.4,1,46.7,0.5,70.1,1.6c2.1-0.5,0-1,2.6-1c33.2,1,80.4-0.5,104.8,2.1c2.1,0-0.5-0.5-1.6-0.5
			c36.8,0.5,74.7,0,111.6,1.6c27-1,70.6,0.5,103.8,0.5c8.3-0.5-1-1,6.7-1.6c2.6,0,5.7,0,8.3,0c-8.8,2.6,24.9,1.6,36.3,2.1
			c4.2-1.6-9.3-0.5-11.9-1c-3.1-1,9.9-0.5,13-1c13,3.1,41,1.6,61.2,3.1c8.3-0.5-1-1,6.7-1.6c2.6,0,5.2,0.5,8.3,0
			c2.1,0.5-3.6,1-6.7,1c5.7,0.5,11.9,0.5,18.7,0c0.5-0.5-6.7-1,0.5-1.6c-4.2-0.5-8.3,0.5-12.5-0.5c7.3-1,13.5,0.5,21.3-1
			c6.2,1.6,13.5,1,20.2,1c1.6,1-13.5-0.5-18.7,0.5c13,1.6-5.7,0.5-10.9,1c19.2,2.1,18.2,0,36.8,1c3.6-0.5-5.2-1-3.6-1.6
			c2.1,0,4.2,0,6.2,0.5c3.6-0.5,1.6-1-3.6-1c10.9-1.6,21.3-0.5,32.2-2.1c6.2,0.5,9.9,0.5,7.8,1.6c8.8,0,18.7-2.1,27.5-1
			c4.7,0.5-6.7,1-8.8,1.6c6.7,0.5,13-0.5,10.9-1c6.7-0.5,11.9,1,18.7,0.5c2.1,0.5-5.2,1,3.6,1.6c9.9-2.1,42-2.1,41.5-0.5
			c8.8,0,17.6,1,27-0.5c10.4,2.1,28,0,32.7,1.6c11.9-3.1,37.9,1.6,56.1-0.5c17.1,0.5,34.8,0,51.4,1c5.7,0.5-10.4,0-0.5,1
			c28.5-2.1,55,1,83,0c-3.1-0.5-6.7-0.5-9.9-1c-1.6-0.5,3.1-0.5,0.5-1c12.5,0.5,24.4,1.6,36.8,1.6c2.6-0.5-3.1-0.5-5.7-1
			c-3.6-1,9.3,0.5,13-1c0.5,0.5,2.6,1,7.8,1c11.9-2.6,32.7,1,50.3-0.5c7.3,0.5,6.7,1.6-0.5,2.1c5.2,1,10.9,0,16.6,0.5
			c2.1-0.5-3.1-1-5.7-1.6c5.7-1,11.4-0.5,17.1-1c3.1,0.5,0.5,1-4.7,1.6c15.1-1,29.1,0,43.6,0c2.1,0.5-5.2,1,3.6,1.6
			c9.3-2.6,52.4-0.5,67-1.6c4.2,1,20.8,1,7.3,2.1c8.8,0.5,9.9-0.5,10.9-1c8.8,0,9.9,2.6,22.3,1.6c-3.6-1-8.3,0-12.5-0.5
			c2.6,0,3.6-0.5,2.1-0.5c20.8,0,41,1.6,62.3,0c-1,1.6,0.5,1,7.3,2.6c6.7-0.5-1.6-1.6-5.2-2.1c11.9-2.1,21.8,1.6,33.2-0.5
			c12.5,1-5.7,1.6,1,2.6c7.8-1,4.2-1.6,7.3-2.6c8.3-1,7.8,1,12.5,0.5c2.1,0.5-3.6,1-6.7,1c7.3,0.5,18.7-0.5,15.1-1
			c14,1.6,14,0,23.9,2.1c14-1,15.1-0.5,29.1,0c2.1-0.5-5.2-1.6,5.2-2.1l-9.9-1.6c-7.8,0-4.2,1-12.5,0c-4.7,0.5-2.6,0.5-0.5,1
			c-13,0-52.9,0-44.6-2.1c-4.2-0.5-8.8,0.5-13,1c-6.7-1-0.5-2.1,7.3-2.1c-4.2-0.5-25.4-0.5-17.1,1c-9.3,0.5-17.6-1-27,0.5
			c-3.6-0.5,8.8-1,6.7-1.6c-6.7-1-28.5,0.5-22.3-1.6c-5.2-0.5-7.8,0.5-4.7,1c-7.8,0-15.1,0-22.3-1c-2.1,0.5,0,1-2.6,1
			c-5.2,0.5-9.3,0-14.5,0c0-0.5,1-1,2.6-1c-18.2,1-36.3,0.5-54,0c-4.7-0.5,6.2,0,8.8-1c-5.7-0.5-12.5,0.5-18.2-1
			c8.3-0.5,16.6-0.5,24.9,0.5c7.3-2.1,28.5,0.5,42-0.5c-27-1-51.9-0.5-74.2-1c-5.2,1,6.2,0.5,7.8,1c-14,1.6-13-2.1-26.5-1
			c4.2,0,8.3,0.5,12.5,0.5c-6.2,1-10.9-0.5-17.1,1c-5.2-0.5-0.5-1,2.6-1c-3.6,0-7.3,0.5-10.4-0.5c-4.2,1.6-39.4,0.5-56.1,0
			c-3.1-1,9.3,0.5,12.5-0.5c-28.5,0.5-56.6,0-84.6-0.5c-2.1-0.5,3.6-1,6.7-1c-8.3-1.6-15.6,0.5-15.1,1c-12.5,0,0.5-1.6-11.4-2.1
			c-11.9,0.5,7.8,1,1.6,1.6c-17.1,0-35.3,1-51.9-0.5c-6.7,1.6-14.5,1-25.4,1.6c-7.3-0.5-2.1-1-7.8-1.6c-13.5,1-26.5,0.5-39.4,0.5
			c-2.6-1,10.9-0.5,15.1-0.5c-8.3-1-24.4-0.5-35.3,0.5c-7.8-0.5,2.1-1-5.7-1.6c6.2-1,14.5,0,15.1-1c-25.9,0-43.6,0.5-67,1.6
			c-11.4-1,7.8-1.6-1-2.1c-22.3,0-44.6,0-65.9-1.6c-11.4,1.6-18.7,0-24.9,0c-4.2,0.5,2.6,1-4.7,1.6c-15.6-1.6-54,0.5-55.5-1.6
			c-25.9,0-61.2-1.6-81,0c-12.5-1.6-26.5,0-38.4-2.1c-9.3,1.6-18.2,0-27.5,1.6c-7.3-0.5-2.1-1-7.8-1.6c-48.3-0.5-97.1,0-144.3-2.1
			c-1.6,0.5-6.7,1,1.6,1c-39.4-1-79.4-2.1-119.9-1c-9.9,0.5-18.7-1.6-28.5-1c-2.1,0.5,2.6,0.5-0.5,1c-11.9-0.5-27.5-1.6-45.7-0.5
			c-4.2-0.5-7.8-1-11.9-1.6c-42.6,1-84.6,0-126.1-1c-1.6,0,0,0.5-2.6,0.5c-33.7-0.5-68-1-102.2-1h-25.4h-13h-3.1l0,0l0,0
			c-0.5,0-1,0-1.6-0.5v-0.5c-0.5,0.5-0.5-0.5-0.5-1l0,0c0-2.1,0-4.2,0-6.7c0-4.7,0-9.3,0-14c0-9.3,0-18.2,0.5-26.5
			c0-17.1-1-31.1,0.5-43.6c-0.5-3.1-0.5-5.7-1-8.8c2.1-7.8-0.5-27,1-41c-1.6-35.3,0.5-85.1-0.5-126.6c0.5-2.6,0.5-5.2,1-7.8
			c-1.6-54,1-106.4-1-160.4c1.6-22.8-0.5-47.2,1-70.1c-1.6-14.5,0.5-27.5-0.5-42c0.5-8.3,0.5-16.6,0.5-24.9c0-4.2,0-8.3,0-12.5V187
			v-1l0,0l0,0l0,0c0,0,0,0-0.5-0.5l0,0h0.5l0,0l0,0l0,0h0.5h2.1h16.1c21.3,0,43.1,0,64.4,0c43.1,0,86.2-0.5,128.7,0
			c3.1-0.5,5.7-0.5,8.8-1c3.6,0,3.6,0.5,1.6,0.5c45.7-0.5,78.9-0.5,125.1-1c2.6,0.5,5.2,0.5,7.8,1c8.8,0,3.6-2.1,17.1-1
			c2.1,0.5-3.6,0-6.7,0.5c5.7,0.5,14.5,0,15.1-0.5c337.3,0.5,664.3-4.2,1000.6-5.2c2.1,0,4.2-0.5,6.7-0.5c45.2,1,91.9-1.6,137,0
			c8.3-0.5,15.6-2.1,16.6-0.5c6.7-0.5,25.4-1,37.4-0.5c3.1-0.5,5.7-0.5,8.8-1c16.1,0,31.7,0.5,47.7-0.5
			c76.3,1.6,154.1-2.1,229.9,0.5c3.1-0.5,5.7-0.5,8.8-1c12.5,1,34.8,1,41.5-0.5c3.6,0.5,1.6,1,5.7,1.6c5.7-2.1,12.5-0.5,18.7,0
			c20.2-1.6,44.1-1,71.1-1c3.6,0.5,3.6,1,1.6,1c6.2,0,7.3-1.6,19.2-0.5c2.1,0-0.5-0.5-1.6-0.5c6.2-0.5,12.5,0.5,19.2-0.5
			c4.2,0.5,2.1,0.5-0.5,1c7.3-0.5,21.3-1.6,33.7-1.6c5.7,1.6-7.3,0.5-13,1.6c25.4-1,50.3-1.6,75.8-2.6c3.1,0.5,6.7,1,9.9,1.6
			c-2.1,1,5.7-0.5-3.6-1c11.9-1,22.3-1,37.9-1.6c2.6,1,17.6,0.5,7.8,1.6c6.7,0.5,7.3-1.6,20.8,0c9.9-1-5.2-1-7.8-1
			c15.1-1.6,29.1,0,44.1-1.6c2.1,0.5-2.1,0.5-4.7,1c4.2,0.5,8.3-0.5,12.5,0.5c-3.6-1.6,7.3-0.5,15.1-1.6c35.8,2.1,76.8-3.1,108-0.5
			c7.3-2.1,29.1-1.6,42.6-2.1c-1,1.6-18.2,0.5-25.4,1.6c3.1,0.5,6.7,0.5,9.9,1c-11.9,0.5-24.4,2.1-36.3,2.6c1.6-2.6-31.1,0-37.4,0.5
			c23.9,1.6,63.3,0.5,85.6-1.6c2.1,0.5-3.6,1-6.7,1c13-0.5,39.4-0.5,40.5-2.6c7.8-0.5,5.2,1,9.9,1.6c23.9-1.6,38.9-1.6,65.9-3.1
			c31.7,0,63.8,0,96.5-2.6c18.7,0.5,48.8-0.5,61.2-2.6c6.2,0,13,0,20.2,0c3.6,0,7.3,0,11.4,0c1,0,2.1,0,2.6,0h1c0.5,0,1.6,0,2.6,0
			c6.2-0.5,14-1,21.8-1.6c0.5,4.7,0.5,9.3,0.5,14.5c0,2.6,0,4.7-0.5,7.3c0,1,0,2.1-0.5,3.6c0,2.6-0.5,4.7-0.5,7.3
			c3.1-12.5,1.6,31.1,4.7,29.1c-0.5,10.9,2.6,23.4,1,33.7c2.6,44.6,3.1,88.2,0.5,130.8c1,5.7,1.6,11.9,2.6,9.3
			c0.5,7.3,0,13.5-1,20.2c1,6.7,0.5,12.5,0.5,19.2c1.6,3.1,1,8.8,2.6,13.5c0.5-3.6-0.5-8.3,0-12.5c1.6,27.5,1.6,72.7-1,105.4
			c2.1,4.2,2.1,16.1,2.1,29.6c3.6,26.5,5.7,60.7,6.7,93.9c-0.5,4.2-1,7.8-1.6,11.9c1.6-3.1,1,18.7,2.1,28c-0.5,1-0.5,1.6-1-0.5
			c0.5,15.1,0.5,29.6,1,43.1c0,6.7,0.5,13.5,1,20.2c0,1.6,0,3.1,0.5,4.7c0,1,0,2.6,0.5,3.6c0.5,2.6,0.5,4.7,0.5,7.3
			c0,10.9,0.5,23.4,1,36.3c-14,0.5-28.5,1.6-39.4,3.1c-2.1,0-4.7,0-7.3,0c-3.1,0-6.7,0-9.9,0.5c-6.7,0.5-14.5,0.5-21.8,1
			c-14.5,1-29.1,2.1-37.9,2.6c-29.1,2.1-55,3.6-77.3,6.2c7.8,0,7.8,1,11.9,1.6c-5.7,0.5-10.9,0-17.1,1c10.4,0.5,14.5-0.5,20.8,0.5
			c10.4-1.6,27.5,0.5,31.7-1c5.2-0.5,9.3,1,14,1.6c13.5-0.5,26.5-0.5,39.4-0.5c-12.5,1-17.6,1-34.8,3.1c20.2,0,43.6-0.5,67.5-1
			c12.5,0,25.4-0.5,38.4-0.5c13-0.5,25.9-0.5,37.9-1c-0.5-11.9-1-23.4-1.6-34.8c-0.5-5.7,0-10.9,0.5-16.6c-0.5-0.5-1,0-1,1.6
			c0-6.2-0.5-12.5-0.5-19.2c2.1-8.8-1.6-33.2-3.1-44.6c1-5.7,1.6,3.1,2.6,9.3c-0.5-5.7,0.5-14.5,1.6-14c1,10.4,0,12.5,1.6,19.2
			c0.5-4.7-1.6-10.4,0-14.5c-0.5-7.8-1-3.1-1.6-8.8c0-2.6,0-5.7,0-8.3c1,0.5,1.6,9.3,2.6,9.3c0,2.1,0,4.2,0,6.2
			c-1.6-5.2-0.5,13,0,20.8c-0.5,3.6-1,1.6-1.6,5.7c0.5,9.3,1,14.5,2.1,20.2c1,5.2,1.6,10.9,1.6,20.2c-1,1.6-1.6-16.1-2.6-20.8
			c0,7.3,0.5,24.4,1.6,20.2c-0.5,16.1,0.5,33.7,1.6,52.9c-4.7,0.5-9.3,0.5-14,1c5.2,0.5,10.4,0,15.1,0c-0.5-9.3-1.6-19.2-1.6-28.5
			c1.6,5.7,2.1,17.1,2.6,29.1c-8.8,0-18.2,0-24.9-0.5c-8.8,0.5-17.6,1-27,1.6c-4.7,0-9.3,0.5-13.5,0h-3.1h-3.1c-2.1,0-4.2,0-5.7-0.5
			c-50.3,3.1-99.1,2.1-149.5,4.7c10.4,1,21.8,0.5,32.2,2.1c11.9-0.5,23.9-0.5,34.8,1c4.2-0.5,2.1-0.5,4.7-1c8.3,1.6,18.2,0,26.5,1
			c4.2,0.5-1,1-6.7,1.6c10.4,1,22.3,0,33.2,0c8.3,0.5-4.7,1,1.6,1.6c7.8,0.5,14.5,0,20.8-0.5c3.1,0,6.7-0.5,10.4-0.5
			c1,0,2.1,0,3.6,0c1,0,2.6,0,4.2,0c2.6,0,5.7,0,8.8,0c3.6,0.5-2.1,1.6-9.3,1.6c-2.1,0-3.6,0-5.7,0.5c-1.6,0-3.1,0-4.7,0.5
			c-3.1,0-5.7,0.5-7.8,0.5c3.6,0,6.7,0.5,9.9,1c2.1,0-0.5-0.5-2.1-0.5c1,0,2.1,0,3.1,0s2.1,0,3.1,0c2.1,0,4.2,0,6.2,0
			c3.6,0,6.7,0,8.8-0.5c5.2,0.5,2.1,1,7.8,1.6c19.2-1,37.4-0.5,56.6-0.5c0.5,0,1,0,1,0c-0.5-6.7-1-7.3-2.1-2.1
			c-0.5-6.7-1-12.5-1-17.6c1-4.7,2.1-5.7,3.1-7.3c0,8.3,0.5,18.2,1,28c-16.1,1-31.7,2.1-35.8,3.6c-17.6,0-35.3,0.5-52.9,0.5
			c-13,0-25.4,0-38.4-0.5c6.2,2.1-13,1.6-23.4,1c-2.6-1,10.9,0,15.1-0.5c-10.4-1-22.3,1-33.7,1.6c-7.8-0.5,5.2-1-5.7-1.6
			c-3.1,1.6-31.1,1.6-46.2,1c-12.5,1.6-27,1-44.1,1.6c-2.1,1.6,15.1,0.5,20.2,0.5c-14.5,1-49.8,2.6-75.3,1
			c-17.6,2.1-77.3,0-82.5,4.2c-15.1-0.5-21.3,1.6-33.7,1c0-1,8.3-0.5,6.7-1.6c-33.7,1.6-67,4.2-69.5,7.8c7.8,1,21.3,1.6,17.6,3.1
			c17.6,1,45.7,1,50.3,4.2c8.3-1.6,23.9-0.5,25.9-2.6c-2.6-0.5-5.7,0-8.3,0.5c-3.6-1,1-0.5,6.7-1c5.2,1,10.4,1,16.1,1
			c5.7,0.5,3.6,1-2.6,1.6c5.2,0,10.4,0,10.4-0.5c12.5,2.1,42,0.5,62.3-0.5c22.8,2.1,47.2-1,71.6-2.6c1,0,2.6,0.5,4.2,0.5
			c-10.4,2.6-33.2,2.6-45.7,4.7c4.2,0.5,8.3,0,11.9,1c35.8-2.6,57.6-1.6,92.9-3.6c1,0.5,0,0.5,1.6,0.5c-12.5,0.5-31.7,1.6-38.4,2.6
			c5.2,0.5,10.9,0,16.6,0.5c-2.1-1,3.1-1.6,10.9-0.5c-1.6-0.5-1.6-1.6,1-2.1c11.9,0.5,39.4-0.5,34.3-2.1c5.2-1,2.1,1.6,9.9,1
			c1,0.5-8.3,0.5-4.7,1.6c8.3,0,16.1-1.6,13.5-2.6c5.7-0.5,4.2,1.6,9.9,1.6c11.4-0.5,4.2-1.6,11.4-2.1c5.7-0.5,6.7,1,3.6,1
			c8.8,0.5,6.7-1,8.8-1.6c2.6,0,10.9,0.5,11.9,1.6c-5.2,1-9.9,0.5-15.1,1c11.9,1,18.2-1,17.6-2.1c10.4,0,19.7-0.5,29.1-0.5
			c11.4-0.5,21.3-1,30.1-1.6c18.7,0.5-2.1,1.6,6.7,2.1c-15.1,0.5-29.6,0.5-44.6,1c14,1,13.5,2.1-2.1,3.1c9.3,0.5,18.7,0,19.2-0.5
			c1.6,1,18.2,0,22.3,1.6c18.7-1,35.8-1,60.2-1c0-2.6,0-5.2,0-8.3c0.5-2.1,0.5,2.6,0.5,8.8c-6.7,0-15.6,0-19.2-0.5
			c-3.6,0-2.1,0.5,0,0.5c-2.6,0-5.2,0.5-7.8,0.5c8.8,0.5,18.2,0.5,27,0c0-6.7-0.5-13-0.5-19.7c1-6.2,2.1,3.6,3.1-3.1
			c-1-9.3-0.5-9.3-1.6-25.4c0.5-14,1-8.8,1.6-17.1c-0.5-10.4-1-8.3-1-13c0.5-10.4,1-0.5,1.6-14c0-6.2,0-11.9-0.5-18.2
			c0-3.6,0-6.7,0-10.4c0-6.2,0-12.5,0-18.7c1-5.2,0.5,5.2,1.6,10.9c0.5-5.7-1-13,0.5-18.7c-0.5,0-1-4.7-1-2.6
			c1-30.1-1-61.2-0.5-91.3c-0.5-2.1-0.5,1.6-1,3.6c-0.5-5.2-1-10.4-1-15.1c4.2-7.3-1-41,0-58.1c3.6,6.2,2.6,28,4.2,45.2
			c1-8.8-1-19.7,1-22.3c-0.5-4.2-1-8.8-1.6-13c0.5-5.2,1-3.6,1.6-5.7c0,5.7,1,11.4,0.5,16.6c1-2.6,0.5,5.2,1.6,6.7
			c2.1-8.8-2.6-20.2-0.5-29.1c-1.6-9.9-2.6-19.7-4.2-28.5c0.5-8.3,1.6-3.6,2.1,1c1.6-6.2,0.5-13.5,0.5-20.8c-0.5,1-1.6-1-2.1-9.3
			c-0.5,4.2,0.5,8.3-0.5,12.5c-0.5-7.3-0.5-14,0-20.8l-2.1-19.7c1.6-3.1,1,4.2,1.6-9.9c0.5-9.9,1.6,5.2,2.1-3.1
			c-2.6-3.6-1.6-15.1-3.6-28.5c0.5-12.5,0.5-24.9,1-36.8c-2.6-10.4-2.6-22.3-4.2-36.8c0.5-9.3,1.6,7.3,2.1,5.2
			c0-19.2-3.6-38.9-5.2-47.7c-0.5,19.2,2.6,25.9,3.1,38.4c-0.5,3.6-1,3.6-1,1.6c-0.5,5.2,1,14,1.6,8.8c-2.1,17.1,3.6,51.9,1,75.3
			c-3.1-15.1-3.1-46.7-2.6-67.5c-3.6-14-3.1-43.1-3.1-70.1c1.6,7.8,2.6,12.5,4.7,14c-1-5.7-0.5-11.4-1.6-17.1
			c2.6-18.2-1.6-25.9,1-43.1c-1-19.7-1-13.5-1.6-31.7c-0.5,5.7-1-1.6-1,1.6c-0.5-5.7,0-10.9-1-17.1c1-9.3,1.6,2.6,1.6,8.8
			c1-1.6,0-25.9-1.6-25.4c0-4.2,0-8.3,0-12.5c0-2.1,0-4.2,0-6.2c0-1,0-2.6,0.5-3.6c0-1.6,0.5-3.6,0.5-5.2c0-10.4-0.5-20.8-1-31.1
			c-0.5-10.4-1-20.8-0.5-30.6c1.6-13.5,2.6,7.8,4.2,19.2c0-22.8-1.6-33.7-1.6-58.1c-4.7,0-9.9,0-16.1,0c-11.9-1-4.7-1-20.8-1
			c-13,1,22.3,0.5,9.3,1.6c8.8,0,17.6,0,27,0c0,2.1,0,3.6,0,5.7c-1.6,6.2-1,2.6-1,22.3c-0.5,3.6-0.5-3.6-1-7.3
			c-0.5-6.2,0.5-13,1-19.7c-2.6,0-5.7-0.5-8.8,0c-0.5,0.5-8.8,1-5.7,1c-12.5,0.5-23.9,0-35.8,0c-4.7-0.5-1-1,8.3-1
			c7.3,0,2.6,0.5,9.9,1c2.6-0.5,8.8-1.6-0.5-2.1c-13.5,1-26.5,1.6-38.9,2.1c-6.2,0-12.5,0.5-18.7,0.5c-5.7,0-11.4,0.5-17.1,0.5
			c-14,0.5-28,1-42,2.1c-3.1-0.5-5.7-0.5-3.6-1c-2.6,1-24.4,2.1-38.4,2.1c-1.6-1.6,21.3-2.1,19.7-2.6c5.7,1,10.9,0.5,2.1,0
			c-23.4,1-44.6,1.6-62.8,1.6c-6.2-1.6,21.8-1,21.8-3.1c-8.3,0-10.4-0.5-15.1,0.5c-27-1.6-76.8,2.6-104.8,3.1
			c-5.7-0.5,16.6-1,5.2-2.1c-4.2,1.6-14.5,1.6-23.9,2.1c6.2,0.5,11.9,0.5,18.7,0.5c1,0.5,0,0.5,1.6,0.5c-13,1-24.4-1-37.9,0.5
			c-3.6-0.5-1.6-1-5.7-1.6c-10.4,1-19.7,0.5-29.6,1c-3.6-0.5-3.6-1-1.6-1c-4.7-0.5-9.9,0.5-14.5-0.5c-4.2,0.5-2.6,0.5-0.5,1
			c-38.4-0.5-64.4,0-101.7,0.5c-3.1-0.5-0.5-1,4.7-1.6c-6.2,0-12.5,0.5-18.7,0c-10.4,0.5,4.2,1.6-5.2,2.1c-9.3-1-19.2-0.5-29.1,0.5
			c-5.7-0.5-0.5-1-7.8-1.6c-3.6,0.5,1,1-2.6,1.6c-11.4-1.6-9.3,0-24.9,0.5c-5.7-0.5-0.5-1-7.8-1.6c-1.6,0.5-2.1,1,1.6,1
			c-13,0.5-41-1-40.5-2.6c-19.7,1,15.6,1.6,3.1,3.1c-7.3,0-4.7-0.5-14-1.6c-9.9,1-21.3,0-25.4,2.1c-9.3,0-19.2,0-22.3-1.6
			c-3.6,0.5-7.3,1-10.9,1c7.3,1.6,3.1-1,10.4,0.5c-6.2,2.1-36.3,0.5-54.5,1.6c3.1-1,1.6-2.1,11.4-2.1c-14-1.6-17.1,2.1-32.2,2.1
			c-8.8-1.6-19.2,0-29.1,0.5c-11.4-1.6-23.4-1-35.3-0.5c-2.6-1,10.9-0.5,15.1-1c-4.2-0.5,6.2-1.6,3.1-2.1c-11.9,1.6-28,1.6-38.9,3.1
			c-3.1-0.5-8.3,0-16.6-0.5c-4.2-1.6,24.9,0,8.8-2.1c6.7-1,12.5,0.5,19.2-0.5c-5.7-1-23.9,1-22.3-1c-6.7,1-14.5,0.5-25.4,1.6
			c1-2.1-11.9,0-22.3-1.6c-13,1.6-25.4,1-37.9,1.6c-0.5,1,9.9,1.6,16.1,1c-1.6,1.6-19.7,0.5-27,0.5c-1.6-1,4.2-1.6,6.7-1.6
			c-1-1-7.3-1-7.3-2.1c-1,2.1-12.5,0.5-23.9,2.1c4.2,1.6,9.9,0,14,1c-6.7,0-14,1-20.8,0c-2.1-0.5,3.6,0,6.7-0.5
			c-3.1-0.5-8.8-0.5-5.7-1c-7.8-1-3.1,1.6-10.4,0c2.1,1,5.7,1.6-1,2.6c-9.9,0-0.5-1-7.8-1.6c-5.7,0.5-3.6,1-2.6,1.6
			c-3.6,0-6.7-0.5-10.4,0c-10.4-1,6.7-2.1-1-3.1c-2.6,0.5-6.2,1.6-5.2,2.1c-7.3,1-13.5-1-20.8,0.5c-7.8-0.5-5.2-1-9.9-1.6
			c-9.3,1-18.2,0.5-27,0c-5.2,1.6-20.8,1-31.7,1c-5.7-0.5,10.9-1,0.5-1.6c-9.3,1.6-19.7,0.5-33.7,1c-8.8,0.5,3.6,1-2.6,1.6
			c-11.9,0-2.1-1.6-11.4-2.1c-5.7,0-7.8,0.5-8.8,1c-19.7-3.1-42,1.6-62.3-0.5c-7.3,1.6-11.9,1.6-25.9,2.6c-3.6,0-6.2-1-14-1
			c-2.1-1,12.5-0.5,17.1-1.6c-12.5-1-22.3,0-31.7,1c-10.4-0.5-5.2-1-11.4-2.1c-8.3,0.5-13-0.5-17.1,1c-2.6-0.5-5.2-0.5-7.8-1
			c3.1,1.6-18.7,2.1-27,0c-6.7,1.6-12.5,1-22.8,0.5c-8.8,1,1,0.5,3.6,1c-5.2,0.5-9.9,0-14.5,0c-7.8-1-2.1-1,1-2.1
			c-8.8,0-17.6-0.5-26.5-2.1c2.1-0.5,4.2-0.5,6.2,0c-1-1-20.2-0.5-28.5-0.5c21.8,1,17.6,2.6,38.4,3.1c-19.7,2.1-21.8-1.6-36.8-1
			c0.5,1,15.6,2.1,13,3.1c-5.2-1-19.7-1-23.9-2.1c-6.2,1-6.2,2.1-11.4,3.1c2.6-1.6-7.8-1.6-15.6-2.6c-4.2-0.5,9.3-1,1-2.1
			c-3.6,1-5.7,1-4.7,2.1c-5.7,0-13-1-8.3,0.5c-6.2,0-11.9-0.5-18.2-1.6c0-0.5,18.7,0,15.1-1.6c-11.4,1-61.8,2.6-51.9,0
			c-6.2,0-13,1-18.7,0c-9.3,2.6-31.1,0.5-46.7,2.6c-3.1-1.6-16.1-0.5-11.4-2.1c-6.7-0.5-5.7,1-15.1,1.6c-16.1,0-31.7-1-47.7,0.5
			c-1.6-1.6-15.1-1-16.6,0c-5.7-1.6-12.5-0.5-18.2-1.6c1.6,1,4.7,1,7.3,2.1c-8.3,0-17.1-1-20.2-1.6c-10.9-0.5-5.7,1.6-20.8,0
			c-1,0.5,2.1,1-2.6,1c9.3-0.5,18.2,0,26.5,1c-15.1,0-30.1-0.5-45.7-0.5c-1-0.5,0-0.5-1.6-0.5c7.3-0.5,19.7,0.5,21.3-1
			c-10.9-1-20.8,1-35.3-0.5c-3.1,0.5-5.7,0.5-8.3,0.5c-2.1,0.5-2.1,1,1.6,1c-9.3,1-18.2,0-27,0.5c-7.3-0.5-2.1-1-7.8-1.6
			c-8.3,0.5,4.2,1-6.7,1c-7.8-0.5,5.2-1-5.7-1.6c-5.7,0.5,0.5,1-2.6,1c-31.7-3.1-71.1-0.5-97.1-2.1c-3.1-0.5,6.2-1,4.7-1.6
			c-11.4-0.5-24.4,1.6-35.3-0.5c-1.6,0.5-2.1,1,1.6,1c-4.7,1-8.3,0-13,1c-5.2-0.5-0.5-1,2.6-1c-5.7-0.5-12.5,0-18.7-0.5
			c-2.1,0.5,1.6,0.5,3.6,1c-4.7,1-8.3,0-12.5,0.5c-0.5-0.5,3.1-1-1.6-1c-3.1,0.5-5.7,0.5-8.8,1c-5.7-0.5-0.5-1-7.8-1.6
			c-20.2,0.5-40.5,0.5-60.2,0.5c2.1,0.5,4.2,0.5,5.7,1c-5.7,0-11.4,1-16.6,0.5c-5.2-0.5-0.5-1,2.6-1c-11.9-0.5-34.3,0.5-40,1
			c-3.1-1-7.8-1.6-16.1-0.5c10.4,1,1,1-4.7,1.6c19.2-0.5,27,1,47.7,0.5c2.1-0.5-2.1,0-4.2-0.5c4.7-1,7.8,0.5,12.5-0.5
			c6.2,1,6.2,1,15.6,2.1c-23.9-1-57.1,1-74.2-1c-1.6,0,0,0.5-2.6,0.5c-8.3,0.5,2.1-1-5.7-1.6c-13.5,2.1-25.4,0.5-37.4,0.5
			c-3.6,1.6-12.5,1-21.3,1c3.1-1,10.9-2.1,5.2-3.1c6.2-0.5,16.6,0,17.1-1c-7.8,0-8.3,0-11.9-1c-3.6,1-9.3,1-10.9,1.6
			c-7.3,0.5-13.5-0.5-20.8,0.5c-7.8-2.1-26.5-1-41.5,0c0-1.6-7.3-1.6-18.7-0.5c-1.6-0.5-1-1,2.6-1c-13.5-0.5-28,1-41.5,0.5
			c-3.6,0.5,5.2,1-0.5,1.6c-4.7,0.5-7.8-1.6-12.5,0c-3.6-0.5-3.6-1-1.6-1c-6.7-0.5,0,1.6-10.9,0.5c-5.2-0.5-6.7-1-3.6-1.6
			c-10.9,0.5-29.1-0.5-33.7,1c-5.7-0.5-0.5-1-7.8-1.6c-0.5,1.6-10.9,0-10.4,0c-14.5,0-19.7,2.1-35.3,0.5c-3.1,1.6-20.2,0.5-29.6,1
			c-0.5-0.5,3.1-1-1.6-1c-6.7,1.6-16.6,0-27.5,1.6c-3.6,1,10.4,1.6,14,1c3.6,0-9.9,1-13,1c-4.2,1,9.3,0.5,12.5,0.5
			c2.1,0.5-3.6,1-6.7,1c-3.1,0-11.4-1.6-20.8,0c-5.2-0.5-9.9-1-5.7-1.6c-7.3-1-15.6,0.5-22.3-1c-2.1,0.5,0,1.6-8.8,1.6
			c5.2-2.1,21.3-3.1,36.8-4.2c-6.7,0-13.5-1-20.2-1c-3.1,0.5-4.2,1.6-10.4,0.5c-2.1,0.5,0,1-2.6,1c-9.3,0.5-5.2-0.5-14-1.6
			c1,2.1-35.8,2.1-39.4,0c-0.5,1-8.8,0-15.1,1c6.7,1,14-0.5,20.2,0.5c-0.5,1-17.6,0-24.9,0c-1,0.5-3.1,1-8.8,1.6
			c-5.2,0.5-4.7-1,0.5-1c-7.3-0.5-7.8,1-2.6,1.6c5.2-0.5,9.3,0.5,14.5-0.5c2.1,0.5,1.6,1,3.6,1.6c-9.9,0.5-19.2-1-29.1,0
			c-2.1-1,15.1-2.6,1-3.1c2.1,1.6-3.1,0.5-10.9,1c-1-1.6,7.3-0.5-7.8-1.6c-1,1-2.1,1.6-10.9,1.6c-3.1-2.1-15.6,0.5-24.4-1
			c24.9,0,45.2-1.6,72.7-0.5c-9.9-1.6,19.2-0.5,15.6-2.6c-3.1-0.5-6.7-0.5-9.9-1c-4.2,1.6-21.3,0.5-24.9-0.5c5.7,1.6-9.9,1-3.1,2.6
			c-5.7,0-11.4,0.5-16.6,0c-4.2-1,16.6,0,2.6-1c4.7-1,7.8,0.5,12.5-0.5c-3.6-0.5-1.6-1-5.7-1.6c-12.5,1.6-15.6,0.5-18.2-1
			c-1,2.1-27,0.5-40,1c-4.7,1,0.5,0.5,5.7,1.6c-14,1.6-36.8,0-44.1,1.6c-8.3-0.5,1.6-1-1.6-1.6c10.9,0,22.3-0.5,33.2,0
			c4.2-0.5,4.2-1.6,1-2.1c-3.1,0.5-5.7,0-8.3,0c-1,0.5-2.1,0.5-0.5,1c-11.4-1.6-42.6,0-50.3,1c5.7-2.6-14.5-1.6-19.7-3.1h-1.6h-0.5
			h-1c-1.6,0-3.1,0-4.7,0c-3.1,0-6.2,0-9.3,0c-3.6,0.5,0.5,0.5,6.2,0.5c2.6,0,6.2,0,8.8,0c1.6,0,3.1,0,3.6,0.5c1,0.5,0.5,0.5,0,0.5
			s-1,0-1.6,0.5c-0.5,0-1,0-1,0c-0.5,0-0.5,0-0.5,0c-0.5,0-1,0-1,0c-7.3,0.5-17.1,1-26.5,1.6c-16.1-1.6,15.6-1.6,15.6-2.6
			c-18.2-1-14.5,0-33.2,0.5c6.2,0.5,2.1,1,3.1,1.6c-8.3,0.5-16.6-1-24.9,0c7.8,0.5,15.6,0.5,23.4,0c7.8,0,15.6,0,22.8,0.5
			c4.7,0,9.3-0.5,13.5-0.5c2.1,0,4.7,0,6.7-0.5l4.2-0.5c5.2-0.5,10.4-0.5,15.6-0.5c3.6,0.5-9.3,0.5-12.5,0.5c-4.2,1,10.4,1,8.3,0
			c0.5,1-2.1,1.6-6.7,2.1c-2.1,0-5.2,0.5-7.8,0.5c-5.2,0-10.9,0-17.1,0c-24.9,0-58.1-0.5-86.2-0.5c0,9.9,0,19.2,0.5,28
			c0.5-4.7,0.5-9.3,1-5.7c0.5-6.2-0.5-14.5,0-20.8c1,0,2.1,0,3.6,0.5c0.5,0-0.5,0.5-2.6,0.5c0.5,7.8,1,25.4,0,31.7
			c0.5-3.1,1,3.6,1.6,11.4c0.5,8.3,0.5,18.7-0.5,24.4c-0.5,4.2-1-21.3-0.5-27.5c-1.6,3.1-1.6-8.8-2.6-14c-0.5,14.5-1,9.3-1.6,26.5
			c-0.5-20.8,0-33.7-0.5-56.1c4.7,0,10.4-0.5,16.1-0.5c-15.1-1-1-1-18.7-2.1c0,0.5,0,2.1,0,3.1c0.5,0.5,0.5-1.6,1-2.1
			c1,0,1.6,0.5,0.5,0.5c0.5,1.6,0.5,5.2,1,13c0,23.9-0.5,47.2,0,71.6c0.5-8.8,1-11.4,1.6-5.7c0.5-10.4,0.5-20.8,0.5-31.7
			c0.5,1.6,1,15.6,1.6,22.8c-0.5,6.7-0.5,3.1-1-1c-0.5,19.7,1.6,6.2,1,29.1c-0.5,1-1.6-8.3-2.1-5.2c0,3.1,0.5,6.7,0.5,10.9
			c0,2.6,0,5.2,0,8.3c0,5.2,0,10.4,0,15.6c0,10.9,0,21.8,1,29.6c-0.5,2.6-1-2.6-1.6,5.7c0.5,7.8,0,15.1,1,23.4
			c0.5-5.2,1-7.3,1.6-7.8c0.5,9.9,0,19.2,1,29.6c-1,4.7-3.1-7.8-1.6-17.1c-0.5,4.7-1.6-3.6-2.1,1c1.6,8.8,1,18.2,2.1,36.3
			c1-4.7-0.5-9.9,0.5-14.5c1,0.5,0,12.5,1,19.2c-0.5,3.6-1,1.6-1.6,5.7c2.6,5.2,0,24.4,1,35.8c-2.1,5.2-1-16.1-2.6-17.6
			c0,2.1,0,4.2,0,6.2c-0.5,8.8-1-5.7-1.6,3.6c0.5,7.8,0,18.7,1,15.1c1,7.3-0.5,13.5,0,20.8c-0.5,1.6-1.6-2.6-1-8.8
			c-1.6,1,1,27-1,28.5c0.5,4.2,1,8.8,1.6,13c0.5-5.2,1-3.6,1.6-5.7c0.5,8.3-0.5,8.3-1,11.9c2.1,13.5,0,25.4-1,47.2
			c1.6,12.5-1,38.9,0,58.1c1,0.5,0.5-8.8,1-14c1.6,3.1,1,23.9,1,33.7c-1,3.1,0-13-1-10.9c-0.5,6.2-1,11.4-1.6,11.9
			c0.5,5.2,2.1,14.5,3.1,21.8c0.5,9.3-1.6,6.7-2.1,14c0,4.7,1,21.3-0.5,18.7c1,16.6,1,32.2,0.5,47.7c-1,9.3-1.6-8.3-2.1,1
			c0.5,11.9,1.6-3.1,2.1,7.3c0.5,9.3-1.6,9.9-2.1,15.6c0.5,5.7-0.5,10.9,0,16.6c-0.5-1.6-1.6,0-2.1,7.3c0.5,0.5,1,3.1,0.5,6.7
			c0.5,5.2,0-6.2,1-7.8c1,5.7,0,10.9,0,16.6c0.5,4.7,1-7.8,1-9.9c0.5-0.5,1,2.1,1.6,2.6c0,7.8-1,7.8,0.5,12.5c-1,8.8-1-2.6-1.6-2.6
			c-0.5,8.3,0.5,7.8,1,10.9c0.5,9.9-0.5,19.2,0,29.1c-0.5,0.5-1.6-6.7-2.1-7.3c0,4.7-1,8.8-1.6,13.5c0,2.1-0.5,4.7-0.5,7.3
			c0,1,0,2.6,0,3.6c0,2.1,0,4.2,0,6.2c-1.6,14-2.6,17.1-2.6,51.9c0.5-9.9,0.5-22.8,1.6-22.3c0.5,11.4,0.5,22.8,0,34.3
			c0.5,7.3,1-5.2,1.6,7.8c0-14.5,1.6-41.5,0-44.6c0.5-2.1,1-5.7,1.6,4.7c0,12.5-1.6,8.8,0,25.4c-0.5,16.6-1-9.3-1.6,7.3
			c1.6-3.1,1.6,17.1,0.5,33.2c1,8.8,1-5.2,1-15.1c0.5,6.2,0,11.9,0.5,18.2c0,0.5,0,0.5,0,1c4.7,0.5,22.3,1,14.5,1.6
			c6.2,0,33.2-1,25.4,0.5c5.7,0.5,10.9-0.5,17.1-1c5.7-0.5,12.5-1,21.3-0.5c3.6,0.5-6.7,1-12.5,1c9.3,0,21.8,0.5,33.2,0.5
			c2.6,0,5.2,0,7.8,0c1.6,0,3.1,0,4.2,0c2.6,0,4.7-0.5,5.7-0.5c3.1,0,17.6,0.5,7.8,1c18.2,0,42.6-1.6,49.3-4.7c4.7,0,9.3,0,14.5,0
			c7.8,1-7.8,1.6,3.1,2.6c-10.4,1-9.9,0.5-16.6,0c-9.9,0.5-12.5,1.6-5.2,2.6c2.1,0-0.5-0.5-1.6-0.5c6.2-0.5,13-1,18.7,0
			c4.7,0.5-6.2,0-8.8,1c5.2,1,11.4-0.5,16.6,0.5c4.7-2.6,27-0.5,41,0.5c7.3-1,13-2.6-1-2.6c3.1,1.6-5.2,1-12.5,0.5
			c-2.1-0.5,3.6-0.5,6.2,0c-3.1-1-24.9-0.5-34.8-1c33.7-1.6,84.1,0,125.1-0.5c2.1,0.5-2.1,0.5-4.7,1c5.2,0.5,10.9,0.5,16.6-0.5
			c2.6,1.6,8.3,0.5,16.1,1c5.7,0.5-14,1-2.6,1.6c8.3-1.6,11.9-0.5,27,0c6.7-1,14.5-2.1,24.9-0.5c7.3-1,14-0.5,21.3-1.6
			c20.8,3.6,61.2,1,98.6,3.1c-0.5-1,9.3-2.1,12.5-0.5c8.8-0.5,6.7-1,6.7-1.6c2.6,0,5.7,0,8.3,0c-1,0.5,1,1.6-7.3,2.1
			c11.4,1,3.6-2.1,16.6-0.5c3.6-1.6,7.3-1,19.2-1c4.2,0.5-1,1-6.7,1.6c20.2-1,50.3,0,65.4-3.1c9.9-0.5,9.9,0.5,16.6,0.5
			c5.2,1-5.7,1.6,1,2.1c7.8-0.5,6.2-1,4.7-2.1c9.9,0.5,7.8-0.5,17.1-1c5.7,1.6-8.3,3.1-17.6,3.1c4.2,0.5,2.1,0.5,0,0.5
			c13.5,1.6,32.7,3.1,56.1,0.5c7.3,0.5-9.9,1-1,2.1c7.8-1.6,27.5,0.5,41.5,0c4.2-0.5,2.1-1,6.7-1c0.5,0.5-3.1,1,1.6,1
			c7.8,0,2.6-0.5,8.8-1c1.6,0.5-3.1,0.5-0.5,1c8.3,1,18.2,0.5,17.1-1c2.1,0.5,4.2,0.5,6.2,0.5c2.1,0.5-2.1,0.5-4.7,1
			c19.2,0,48.8,2.1,62.3,0.5c18.2,1.6,14-0.5,24.9,0.5c11.4-2.1,17.6-1.6,32.2-2.6c-4.7-0.5-9.3-0.5-14-1c6.7-1,12.5,0.5,18.7,0
			c2.1,0.5-2.1,0.5-4.7,1c13,0,25.9,1.6,38.9,1.6c2.1,0.5-2.1,0.5-4.7,1c6.2,0,12.5,0.5,18.7,0c7.8-2.6,47.7,1.6,68.5-0.5
			c-23.9-0.5-48.3-1-72.1-1.6c8.3-0.5,16.6,0,24.9,0c3.6-1-10.9-0.5-14-1c4.2-0.5,8.8-1,13-1.6c3.6,0.5,1.6,1,5.7,1.6
			c17.6-0.5,17.6-3.1,37.9-1.6c1.6,1-14,1-19.2,1.6c0.5,0.5,5.2,1,1.6,1.6c4.2-0.5,15.6-3.1,32.2-2.1c3.1,0.5,0.5,1-4.7,1.6
			c8.3,1,17.1-2.1,29.6-1.6c8.3,0.5-6.2,1,3.1,2.1c2.1,0,1.6-0.5,0-0.5c0-0.5,10.9,0,8.8-1.6c3.6,0,17.1,0.5,14.5-0.5
			c4.7,0,9.9-0.5,14.5,0.5c0,1-14.5,1.6-11.4,2.6c5.2-0.5,12.5-0.5,19.2-1c5.7,0.5,0.5,1,7.8,1.6c12.5-0.5,24.9,0,37.4,0
			c4.2,0.5-7.8,0.5-10.9,1c15.6,1,20.2-2.6,35.3-0.5c4.2,0,8.8-1.6,13-1c5.2-0.5-6.2,0-7.8-1c2.1,0,4.2-0.5,6.7-0.5
			c11.9,1,24.9,0,36.8,1c0,1-17.1,1.6-22.8,0c-5.7,0.5-11.4,1-17.1,1c6.7,0,22.3,2.1,33.2,0c8.3,1-3.1,1.6,5.2,2.1
			c8.3-1.6,33.2-1.6,52.4-1.6c4.7,1-6.7,0.5-8.8,1c8.8,0,4.7,1,11.9,1.6c11.4-0.5,22.3,0,33.7-1c14.5,1.6,15.1,0,37.9-1.6
			c-8.8,0-18.2,0.5-27,0c-4.7,0.5-2.6,0.5-0.5,1c-5.7,0.5-11.4,0.5-16.6,0c-4.7-0.5,6.7-0.5,8.3-0.5c-2.6-1-22.3-3.1-32.7-1.6
			c-6.2-1.6-29.6-1.6-43.1-1c-4.7-0.5-2.1-1.6-10.4-0.5c-20.8-1.6-42-2.1-63.8-1.6c0-1.6-22.3-0.5-15.6-2.1
			c-3.6,0.5-10.4,0.5-19.2,0.5c3.1,0.5,6.7,0.5,9.9,1c-4.2,0-8.3,0.5-12.5,0.5c-1.6-0.5-1.6-1,2.6-1c-5.2-1-10.9-0.5-16.1-1
			c-4.2,0.5-2.1,0.5-4.7,1c-4.7-0.5-9.3-1.6-14.5-0.5c-3.1-0.5-6.7-1-9.9-1c-5.7-0.5,10.9-1,0.5-1.6c-8.8,2.1-44.1,1-51.9-0.5
			c-7.3-0.5-2.6,0.5-8.8,1c-2.1,0-4.2,0-6.2,0c-7.8-0.5-2.1-1-9.9-1.6c-14,1.6-40.5,0-60.2-0.5c-5.2,1-9.9,0.5-15.1,1
			c9.9,1,8.3-1,18.7,0c-5.2,0.5-3.6,0.5,1.6,1.6c-14,1.6-25.4,0.5-28.5-0.5c5.7-1,10.4,1,16.6,0c-9.3,0-13-1.6-5.2-2.1
			c-13,0-25.9-1-38.9-1c4.2-1.6,2.1-1-7.8-1.6c7.3-0.5,14,0,20.2,1c3.6-0.5-5.2-1,0.5-1.6c-7.8,0.5-15.1-0.5-22.8-0.5
			c-5.2,0.5,2.1,1.6,7.3,2.1c-11.9,0.5-23.4-0.5-35.3,0.5c-2.1,0.5,2.1,1.6-1,2.1c-12.5,0.5,0.5-1-9.3-1.6c-2.1-0.5,3.6,0,6.2-0.5
			c-11.4-1.6-39.4-1-52.9-2.6c-17.1,1.6-33.2,0.5-49.8,0c-5.2-1.6,11.9-1,13.5-2.6c-12.5-1-16.1,1.6-18.2-1c-4.2,1-4.2,1.6-1,2.6
			c-14.5,0.5-29.1,0-43.6-0.5c-5.2,2.1-19.2,1-29.6,1c-2.1-0.5,2.1-0.5,4.7-1c3.6,0,6.7,0.5,9.9,1c3.1,0,3.6-0.5,2.6-0.5
			c1.6,0,3.1-0.5,4.2-0.5c-7.3-0.5-15.6,0.5-22.3-1c5.2-0.5,9.9,0,14.5,0c3.1-1.6-11.9-0.5-16.1-1c14-2.1-16.1-0.5-26.5-1.6
			c0.5,1-2.6,2.1-11.4,2.1c6.2-1-4.7-1.6-5.2-2.6c-2.1,0.5-4.2,0.5-6.2,0c3.6,1.6-10.4,1-13.5,2.6c-5.7,0-22.8-1.6-35.3-0.5
			c-7.3-0.5,0-1.6,1-2.1c-11.4-0.5-22.3-1-28.5-1.6c-3.1,0.5-5.7,0.5-8.8,1l7.8,1c8.3-1.6,15.1,0.5,22.8,0.5
			c-9.9,1-19.2-0.5-29.1,0.5c1.6-3.1-22.3-1.6-38.4-3.1c6.2,0.5,12.5-0.5,18.7,0.5c1-1-16.1-1-22.3-1c-2.1,0.5-1.6,1.6-5.2,2.1
			c-11.4,0.5-5.2-1.6-9.9-1.6c-3.1,0.5-5.7,0-8.3,0c-1,1.6-10.4,1.6-20.8,0c5.7,1.6-3.1,0.5-13,2.1c-11.4-1.6,15.1-1,1-2.6
			c-4.2,2.1-11.9,1-17.6,2.6c-9.9-1,12.5-1,9.3-2.1c-9.9,0-12.5,0-19.2,1c-8.8-1,7.3-0.5,4.7-1.6c-17.6-2.1-23.9,0-42,0.5
			c-4.7-0.5-2.1-1-9.9-1.6c-9.3,1-18.2,0-27,0.5c-2.6-0.5,2.1-1.6,1-2.1c3.1-0.5,5.7,0,8.3-0.5c6.7,0.5-0.5,1-0.5,1.6
			c12.5,0,16.6-1,31.1-0.5c-8.8-0.5-17.6-1.6-26.5-1c-6.7-0.5,11.4,0,4.7-1c9.3,0.5,19.2,0.5,28.5,0.5c2.1-0.5-2.6-0.5,0.5-1
			c8.3-0.5,2.1,1,9.9,1.6c3.6-0.5,7.3-0.5,10.4,0c2.1-3.1,19.7,1,31.7-1c7.3,0.5-2.1,1.6,7.8,1.6c6.2-1-1-2.1,5.2-3.1
			c-5.2-0.5-10.9,0-16.6-0.5c-2.1,0.5,1.6,0.5,3.6,1c-7.3,1-14,0-20.8,0c-1-1,6.7-0.5,8.8-1.6c8.3,0,16.6,0.5,24.9-0.5
			c7.3,0.5-2.1,1.6,7.8,1.6c14.5-3.6,58.6-0.5,85.6-0.5c1,0.5-8.8,1.6-4.7,2.1c-24.9-0.5-49.3-1.6-74.2-1.6c-4.2,1,8.8,1,12.5,0
			c6.2,1,14.5,0.5,5.7,1.6c6.7,0,14-0.5,20.8-0.5c1.6,0.5-6.2,1.6,3.1,2.1c6.7-1.6,8.8-1,19.2-0.5c7.8,0.5-2.1,1,5.7,1.6
			c14.5,0.5,33.2-0.5,42-1c-0.5,0.5,4.2,1,1.6,1c-6.2,0.5,0-1-8.3,0c11.9,1,24.9,0,36.8,1c5.2-0.5,10.4-1,15.1-1.6
			c4.2,0.5,4.2,1.6,11.4,2.1c8.8-1.6-4.7-1.6-7.3-2.6c7.8-1,14.5,1.6,22.8,0.5c9.3,1-8.8,2.1,3.1,3.1c2.1,0-0.5-0.5-1.6-0.5
			c16.1-1,31.7,0,47.7,0.5c8.8-1-4.2-2.1-11.4-2.1c7.8-0.5,16.6-2.6,23.4-1.6c3.1,1-8.8,0-6.7,1c3.6,1,8.3-0.5,12.5,0.5
			c5.2-1-0.5-1.6,10.9-1.6c4.7,0.5,4.7,1-0.5,1.6c10.9,1,10.9-2.1,21.3-1c3.1,0.5-11.9,1.6-3.1,2.1c8.3-0.5,5.7-1,10.9-1.6
			c2.6,0,5.7,0,8.3,0c0,1-11.4,0.5-8.8,2.1c10.4,0,7.8,0.5,18.2,2.1c19.2,1,40,0,54,0c-12.5,1.6,32.7,1,46.7,2.1
			c-1.6,1.6-19.2-0.5-27.5,1c16.6,1.6,32.2-1,43.6,0.5c2.1-0.5-1.6-0.5-3.6-1c6.2-1,10.9,0,17.1-1c14.5,2.6,35.8,0.5,44.6,2.1
			c19.2-1,30.1,0.5,46.2-1c-7.3,0-2.1-0.5-7.8-1c23.4-1.6,29.1,1.6,29.6,3.6c5.7-1,1.6-2.1,5.2-3.1c8.8,0.5,17.6,0.5,26.5,1
			c3.1,0.5-10.9,0.5-15.1,1c-2.1-0.5,31.1,1,36.8,0.5c4.7,0.5,4.2,1.6-0.5,1c0,1,8.3,0,12.5,0c2.1-0.5-1.6-0.5-3.6-1
			c17.1,0,42,3.1,65.4,2.1c3.1,0.5,6.7,1,9.9,1.6c4.2-0.5,8.3,0.5,12.5-0.5c17.1,2.6,35.8,0,52.9,2.6c19.2-1,37.4,0,55.5,1.6
			c-11.4,0.5-12.5,1-21.3,2.1c20.8,0,42-1.6,51.9,0c0-2.1,15.6-3.1,10.4-5.7c10.4,0.5,20.2,1,30.6,1.6c0-2.1-37.4-1-35.8-3.6
			c4.2-0.5,7.8,1,11.9,1c2.1-1.6,17.1,0,25.4-1.6c-1.6,1-3.1,1.6,7.3,2.6c-0.5-1,6.2-1.6,15.6-2.1c6.2,1,17.6,2.1,18.2,1
			c7.3,0.5,3.1,1.6,11.9,1.6c3.6,1-1,0.5-6.7,1c8.8,0.5,17.6,0.5,27,0c6.7,1-8.3,1.6-1,2.6c3.6-0.5,7.3-2.6,15.1-1
			c1.6-0.5,6.7-1-1.6-1.6c11.9-0.5,9.9-0.5,15.1-1.6c4.7-1,7.8,1.6,12.5,0.5c9.9-1-4.7-1-7.8-1.6c5.7,0,10.9,0.5,16.6,0
			c4.2,0.5-9.3,1-1,2.1c3.1-1,15.1-0.5,10.4,0.5c13-2.1,34.3-1,51.4,1c1-0.5,6.2-1,6.7-1.6c-8.8-0.5-4.7-0.5-11.9-1.6
			c-5.7,0.5-1.6,1,1.6,1c-17.6,0.5-34.3-1.6-50.9-2.1c15.1-1,28.5,1,43.6,0.5c-7.3-0.5-15.1-0.5-22.3-1.6c8.3-0.5,16.1,1,25.4-1
			c4.2,0.5-3.6,1.6,3.1,2.1c3.6-0.5,6.7,0,10.9-0.5c5.2,0.5,0.5,1-2.6,1c4.2,0.5,8.3-0.5,11.9,0.5c2.6-1.6,15.6-0.5,17.6-2.1
			c10.9,1-1,1.6,7.3,2.6c8.8-0.5,27.5,0.5,28.5,1c13-1,12.5,0.5,24.9,0c4.7,1-6.7,0.5-8.8,1c11.4,1,23.4,0,34.8,1
			c4.7-0.5,5.7-1,7.3-2.1c6.7,0.5,20.2,0,21.3-1.6c8.8,0.5-5.7,1,3.6,1.6c6.2,0.5,12.5-0.5,18.7,0.5c8.3-0.5,3.1-1,10.9-1
			c6.7,1-10.4,1.6-9.3,2.6c-5.2,0.5-8.8-1.6-14.5-0.5c1.6,1,18.2,1,27,0.5c7.3,0.5,2.1,1,7.8,1.6c10.9-1,32.2-1.6,35.3-0.5
			c3.6,0.5,4.2-0.5,2.6-0.5c7.8,0,15.6-0.5,22.3,1c5.2-1,9.9,0,15.1-1c-9.3,0.5-17.1-2.1-27-0.5c-5.7-1,3.1-1.6-11.4-2.6
			c12.5-1.6,15.6,0,18.7,0.5c8.8-1-7.8-1-7.3-2.1c-4.7,0.5-8.8,0.5-12.5,0c-5.7,1-10.4,0-10.9,1c6.7,0.5,12.5,0,9.9,1.6
			c-5.2,0.5-9.3-1-14.5-0.5c-3.1-1,6.2-1-5.7-1.6c3.6,1.6-9.3,0-16.6,0c-1-0.5,1.6-1.6,6.7-1c-5.7,0-18.7-1.6-28.5-1
			c-6.7-2.1-20.2-1-25.9-3.1c-10.9,0.5-9.9,1.6-21.3,1.6c-2.1-0.5,3.6-1,6.7-1c-8.3-1.6-17.6-0.5-26.5-1.6c-3.6,0.5-1.6,1,3.6,1
			c-6.2,1-14.5,0-15.1,1c-0.5,0-2.1-1.6-7.8-1c-3.6-1,1-0.5,6.7-1c-10.9-1-22.3,0-32.7-1.6c-4.7,2.6-15.1-1-25.4,1
			c2.6-1.6-8.3-0.5-9.9-1.6c7.8,0,15.6-0.5,22.3,1c7.3-2.1,26.5,0,38.9,1c1-0.5,2.1-1.6,11.4-2.1c-20.8,2.1-58.1-3.6-78.9,0.5
			c-13-0.5-26.5,0-38.9-1c-3.6,0.5-1.6,1,3.6,1c-4.2,0.5-8.8,1-13,1.6c-4.2,0-8.3,0-12.5-0.5c6.7-0.5,12.5,0,19.2-1
			c-5.7-0.5-11.9-0.5-18.2-1.6c-3.1,0.5-5.7,0.5-8.8,1c-3.6,0-6.7,0-10.4-0.5c-4.2-0.5,1-1,6.7-1.6c-15.1-0.5-9.3,2.6-25.4,1.6
			c-1.6,0.5-2.1,1,1.6,1c-4.2,0.5-8.3,0.5-12.5,0.5c8.8-2.1-22.8-3.1-33.7-4.2c12.5-0.5,42.6,1,42-0.5c12.5,0,24.4,1,36.8,0.5
			c1.6-1.6-15.1-0.5-20.2-1c9.9-0.5,9.9,0,17.1-1.6c4.2,2.1,11.9,0.5,15.6,2.6c10.9-1,6.2-1.6,3.1-2.6c8.3-0.5,7.8,1,11.9,1.6
			c5.2-0.5,9.9,0,15.1-1c7.3,0.5,2.1,1,7.8,1.6c9.9-1,5.2,0,14.5,0.5c9.9-0.5,19.2,0,29.6-1c8.3,0.5-1.6,1,1.6,1.6
			c-10.4,0.5-28.5-1-27.5,1c5.7,0,11.4-0.5,17.1-1c0.5,0.5,1,0.5,3.6,1c9.3-1,11.4-1,18.7,0c11.9-1-0.5-2.1,11.4-2.6
			c2.1,0,4.2,0,6.2,0c7.3,0.5,0,1.6-1,2.1c5.2,1,10.9,0,16.1,1c4.2-0.5,2.6-0.5,0.5-1c12.5-0.5,24.4,2.1,37.4-0.5
			c22.3,1,39.4,0,57.1,2.1c7.3-1,14,0,20.8-0.5c3.1-1,0-1.6,7.3-2.1c-9.3-1-9.3-1-15.6-2.1c-5.2,1-1,1-8.8,2.1
			c-9.3,0.5-17.6-0.5-27,0.5c-5.2-1,9.3-1.6,11.4-2.6c-4.7-0.5-20.8,0-18.2-1.6c-13.5-0.5-28,1-41-0.5c8.3-0.5,16.6,0,25.4-1
			c-5.2-0.5-10.9,0-16.1-1c-2.6,1-4.7,1-8.3,0c-16.6,1.6-31.1-1-47.7-0.5c-8.3-0.5,1.6-1,4.7-1.6c-5.2-1-10.9,0-16.1-0.5
			c3.1,1,3.1,2.1,13.5,2.6c0.5,0.5-1,1-2.6,1c-4.7,0-9.9,0-14.5-0.5c-2.1-0.5,5.2-1-3.6-1.6c-5.2,0.5-4.2,1-6.7,1
			c-2.6,0-5.2-0.5-8.3,0c-4.7-1,4.7-0.5,4.7-1.6c6.2-0.5,11.9,1,18.7,0c-63.8-1.6-128.2-1.6-191.5-3.6c-5.2,2.1-25.4,1-28.5-0.5
			c-4.7,1,1.6,2.1-3.1,3.1c-11.9,0.5-10.4-1.6-22.3-1c-2.1-0.5,2.1-0.5,4.7-1c-10.4-0.5-21.3,0.5-31.1,0c13.5-2.6-24.4-1.6-40-3.6
			c-8.3,0.5,0.5,1,3.6,1.6c-16.6,0-9.3-0.5-24.4-1c-2.6,0.5,5.2,1,1.6,1c-4.2,0-8.3,0-12.5-0.5c-1,0.5-3.1,1-8.8,1.6
			c-9.3,0.5-5.7-1.6-16.6,0c-3.1-0.5-0.5-1,4.7-1.6c-24.4-1-20.2-1.6-51.4-1c-1.6-0.5-1.6-1,2.6-1c-19.7,1.6-38.4,0-58.1,0.5
			c-1-0.5-1.6-0.5,0.5-1c-7.8,0-15.6,0.5-23.4,1.6c-6.2-0.5-6.2-1,0.5-1.6c-24.9,0.5-48.8-2.6-74.7,0c-7.8-0.5,2.1-1-5.7-1.6
			c4.2-0.5,8.3,0.5,12.5-0.5c-19.7,0.5-44.6,1.6-68.5,0.5c-3.6,1,16.1,1,3.1,2.1c-10.4-1-19.2-2.1-28.5-1.6c-6.7,1.6,8.8,0,14,1
			c-7.8,1-15.6,0.5-23.4,0.5c0-1,2.6-1.6,5.2-2.6c-21.3,0-36.8,2.1-60.7,1c-1.6-0.5,3.1-0.5,0.5-1c-3.1-0.5-6.7-0.5-9.9-1
			c-7.8,1-4.2,1-13,1.6c-0.5-0.5-2.6-1-7.8-1.6c-10.4,0.5-20.8,0-31.1,0c-4.7-0.5,6.7-1,8.3-0.5c-7.3-1.6-25.4,0-31.7,1.6
			c-10.4-0.5-0.5-1.6,5.2-2.1c-14.5,0-29.6,2.1-44.1,1c-4.7-0.5,7.3-1.6,8.3-0.5c-2.1-1-9.9-1.6-20.2-1.6c3.1,0,12.5-0.5,4.7-1
			c4.2-0.5,8.3,0.5,12.5-0.5c-6.7-1-14,0-20.2-0.5c2.6,0.5-3.6,2.1-10.9,1c-2.6,0.5,3.1,0,5.7,1c-8.3,0.5-16.6,0.5-25.4,2.1
			c-9.9-0.5,5.2-1.6-3.1-2.1c-6.2,0.5-17.1,0.5-17.6,2.1c-17.6-0.5-37.4-1-49.3-1c-0.5,0.5,1.6,1-6.7,1.6c-6.2-1.6,5.7-2.1-11.4-2.6
			c5.7-1,11.4,0,16.6-0.5c-0.5-1.6-19.2,0-27-0.5c-1,0.5,2.1,1-2.6,1c-6.2-0.5-10.9,0-16.1-1.6c-8.3,0.5-3.1,1-10.9,1.6
			c-6.2,0-11.4-2.1-22.8-0.5c-5.7-0.5-0.5-1-7.8-1.6c5.2-0.5,9.9-0.5,14.5,0c-30.1-2.6-79.9-0.5-117.8-1.6c0-0.5,3.6-1.6,8.8-2.1
			c-7.3-0.5-15.6,0.5-22.8-0.5c-5.7,0.5-3.6,1-2.6,1.6c-18.2,0-51.4-2.6-70.6,0.5c-5.7-1,7.3-1,6.7-1.6c-13.5,0-16.1,0-27-0.5
			c-2.1,0.5,0,1-2.6,1c-13.5,0.5-35.8-2.6-43.6-0.5c-4.7-0.5-2.1-1-9.9-1.6c-6.2,0.5-13,1.6-18.7,0c-10.4,2.6-35.3-1-52.4,1
			c1.6-0.5-7.3-1-3.6-1.6c-10.4,0.5-21.3,1.6-31.1-0.5c-4.2,0.5-8.8,1-13,1c-0.5-0.5-1-0.5-3.6-1c-2.1,1-13.5,0.5-8.3,0
			c-6.7,0.5-17.6,0.5-29.1,0c2.1,1-3.1,1-10.9,1c-2.1-0.5,2.6-0.5,4.7-1c-10.4-0.5-21.3,0-31.7-0.5c9.3-1,10.9,0.5,15.6-1
			c-6.2-0.5-11.9-0.5-18.7-0.5c-1.6-0.5,4.2-1,7.3-1c7.3,0,14,1.6,22.3,0.5c-9.3,0.5-4.2-1.6-13.5-1.6c-1.6-1,5.7-1,12.5-1.6
			c3.1,0.5-1.6,1-2.6,1.6c7.3,0.5,10.9-0.5,15.1-1c6.7,0,14-0.5,20.8,0.5c-15.1-0.5-11.9,1.6-23.4,1c-4.2,1,13,0.5-0.5,1.6
			c-8.3,0.5,2.1-1.6-5.7-1c-11.4,1-1.6,0.5,3.6,1.6c-2.6,0-5.7,0-8.3,0c8.8,1,36.3-0.5,51.9,0.5c-3.6-1.6,7.8,0,8.8-1.6
			c-9.9,0-19.2,0-29.6,1c-3.6-3.1,29.6-2.1,40.5-3.1c15.1,1.6,0,2.6,8.8,3.6c1-1.6,13.5,0.5,21.3-1c-6.7,0-24.4-0.5-18.2-2.1
			c10.9,1.6,10.9-1,27,0.5c8.3,1-3.1,1.6,5.2,2.1l10.9-1c-3.1-0.5-5.7-0.5-3.6-1c19.7-1,38.9-0.5,58.6-1c-5.7-1-12.5-0.5-18.2-1
			c11.9-0.5,32.7-1.6,36.8,0.5c-5.2,0-10.9,0-17.1,1c-2.6,1,9.9,0.5,5.7,1c13,0,24.9-2.1,33.2,0c5.2-1,9.9-0.5,14.5,0
			c0-0.5,4.7-1,2.6-1c15.1,1,41.5-0.5,49.3,1.6c8.8,0,18.2-0.5,27-0.5c0,0.5-1,1-2.6,1c7.8,0.5,5.7-1,10.9-1c8.3,1,2.6,1.6-1,2.6
			c9.3,0.5,21.3,0,24.4,1.6c3.1-1-4.7-2.1,5.2-3.1c-12.5-1-5.7,2.1-21.3,1c-2.1-1,1-1.6,8.8-2.1c16.1-0.5,31.1,2.1,47.2,1.6
			c5.2,1.6-7.3,1-13,1.6c6.7,0.5,14,0,20.8-0.5c-0.5-0.5-1-0.5-3.6-1c5.7-0.5,7.3,0.5,8.3-0.5c11.4,1,23.9-1.6,34.8,1
			c1.6-1,19.2-1,20.8,0c7.8-2.1,27-2.1,40-1c4.2-0.5,2.1-0.5,4.7-1c10.4,1,22.8,0,21.8,2.1c5.2-0.5,10.4-1,15.1-1.6
			c14,1-4.7,1.6,3.1,2.6c9.3-1,18.2-0.5,27,0c1.6-1,10.4-1.6,13.5-2.6c5.2,1-10.9,2.1-1,3.1c1-2.6,27.5-2.1,40-1
			c10.9-0.5,9.9-2.1,21.3-1.6c-1,1-8.8,2.1,3.6,1.6c2.1,0.5-4.2,1.6-11.4,2.1c1,0.5,2.6,0,4.2,0s2.6,0.5,4.2,0.5
			c6.7-0.5,2.1-1.6,9.3-2.1c10.9-0.5,8.8,1.6,19.7,2.1c7.8-1,15.1,0.5,22.8,0c-7.8-1.6-16.1-1-24.9-0.5c0-0.5-4.7-1-9.9-2.1
			c8.8,0.5,8.3-1,18.7,0.5c9.3-0.5-4.7-1,4.7-1.6c8.3,1,28,1,43.1,1.6c2.6-0.5-11.9-1-16.6-0.5c-2.1-2.1,18.2-1.6,27.5-1
			c5.7,1-14.5,0-8.8,1c9.9,1.6,8.3-1,18.7,0c-13,2.1,31.7,0,44.6,2.1c5.2-1,20.8-1.6,32.2-2.6c-2.1,2.1,32.2,0.5,37.4-0.5
			c3.1,0.5,5.7,0.5,3.6,1c3.6-0.5,11.9,0,21.3-1c5.7,2.1,14.5,0,29.1-0.5c2.6,0.5-2.6,1,5.7,1.6c26.5-1,40,0,66.4-0.5
			c2.6,0.5-2.6,1,5.7,1c1-2.1,14.5-0.5,20.2,0.5c-3.6-1.6,10.4-2.6,21.3-2.1c3.1,1-13,0-10.9,1c3.1,0.5,6.7,0.5,9.9,1
			c3.1-0.5-1.6-1,6.7-1c2.1,0.5-5.7,1-2.6,1c13,0.5,17.6,0,17.1-1c10.4-0.5-0.5,1.6,9.9,1.6c-1-1,8.3-1.6,17.1-2.1
			c3.1,1.6,6.2,0,14,1.6c0.5-1,10.9-1,16.6-0.5c0.5,0.5-4.7,0.5-2.6,1c3.6-1.6,35.3,0.5,32.2-2.1c7.3,0.5,15.6-1.6,22.8-0.5
			c5.7,1-7.3,0.5-13,2.1c7.3,0.5,15.1,0,22.8,0.5c4.7-3.1,32.2-1.6,40.5-2.1c-1,1-11.4,1-15.1,1.6c-4.2-0.5-2.1-0.5,0.5-1
			c-8.8-0.5-6.7,0.5-17.1,1c13.5,0.5,17.1,0,28,2.1c8.8-0.5-0.5-1,2.6-1.6c11.9,2.1,60.7,0,78.4,1c2.6,0,17.6-1,10.9-1.6
			c10.9-1,20.2,1,21.3-1c5.7,0.5-1,1.6-1,2.1c-3.6,0-6.7-0.5-9.9-1c-6.7,1,4.2,1.6-8.8,2.1c10.4,0,12.5-0.5,25.4-1.6
			c0.5,0.5,1,0.5,3.6,1c7.3-1-4.2-0.5-1.6-1.6c6.2-0.5,12.5,0.5,19.2-0.5c-31.1-1.6-62.8-1.6-94.5-2.1c-8.8-0.5,5.7-1-3.6-1.6
			c-7.8,0-5.7,0.5-10.9,1c-7.8-1,5.7-2.1,13.5-3.1c17.6,0,36.3,2.6,59.7,1c6.2,0,11.9,1,18.2,1c-5.2-1-3.6-1,8.3-0.5
			c7.3-0.5,0.5-1,4.7-1.6c15.1,2.1,19.2,0.5,32.7,0.5c5.7,0.5,0.5,1,7.8,1.6c-0.5-1,6.2-1.6,15.1-1c5.7,0.5-10.9,1-0.5,1.6
			c3.1-0.5,5.7,0,8.3,0c0.5-0.5,2.6-1,6.7-1c17.6,0.5,26.5,1,40.5,2.1c4.2-2.1,13.5,0.5,22.8-0.5c4.2,1-7.8,0.5-10.9,1
			c7.8,0,15.1,0,22.8,0.5c4.2,0,8.8-1.6,13-1c-2.1-1.6,0.5-1,11.4-2.1c-16.1,0-21.8-1.6-35.3-0.5c-7.3-1,5.2-1-1.6-1.6
			c-8.8,0.5-9.3,1.6-7.3,2.1c-5.2,0.5-9.9,0-15.1,0.5c0-1.6-13.5-1-20.2-0.5c-5.2-1,9.3-1,11.4-2.1c-7.8-0.5-8.3,0-13,1
			c-2.6-0.5-8.3-1.6-20.2-1.6c0,0.5-7.3,1-13,2.1c-2.1-1,1-1.6-7.3-2.6c-5.7,0.5-10.9,0-16.6,0c2.6-0.5-2.6-1-1.6-1.6
			c-22.3,0.5-44.1,0-65.9-1c-13,1.6-24.4-0.5-37.4,0.5c-20.8-2.6-53.5,1-67.5-2.1c-4.7,1-8.3,0-13,1c-5.2-1-10.4-1-16.1-1.6
			c8.8-0.5,15.1,0.5,19.2-1c-4.2,1.6,4.7,0.5,11.9,1c5.7-1-2.6-1-7.8-1c10.4-1,19.7-0.5,29.1-0.5c3.6,0.5-9.9,0.5-12.5,0.5
			c3.1,1.6,24.9,0,35.3,0.5c-4.7-1-9.9,0-14-1c19.2,0.5,26.5-0.5,44.1-1c5.7,0.5-14,1-2.6,1.6c3.1-0.5,5.7-0.5,8.8-1
			c17.6,1,39.4,0.5,51.9-0.5c-12.5,1.6,7.3,1,18.2,1.6c1.6-0.5,6.7-1-1.6-1c15.1-2.1,16.1,1,29.1-0.5c5.7,1,2.6,1.6,1,2.1
			c5.7,0.5,15.1-1,15.1-1.6c8.8-0.5,24.4,1.6,27,0c3.6,0,17.1,1,14,1.6c8.3-1,31.1-1.6,49.8,0c-10.9,0.5-9.9,0.5-19.2,1.6
			c6.7,0.5,13.5,1,20.2,1.6c6.2-0.5-5.7-1.6,2.6-1c4.2-1-9.3,0-12.5,0c-1-1.6,23.4-2.6,33.7-1c13.5,0,29.1-3.1,42-1
			c3.1-0.5,5.7-0.5,8.8-1c6.7,0.5-0.5,1-0.5,1.6c8.3,0.5,17.1-1.6,24.9-0.5c4.2,1-8.3,0.5-10.9,1c23.4-0.5,45.7-1.6,60.2,0.5
			c6.7,0,13.5,0,21.3-1c-4.7-0.5-5.7-1-1.6-1c7.8,1,31.1,0,45.2,1c-5.2,0.5-10.4,1-14.5,0.5c3.6,1,25.9,1,36.8,1
			c9.9-1-7.3,0-9.9-1.6c7.3-1,14,0,21.3-1c-1.6-0.5-1-1,2.6-1c-5.2-0.5-7.8,0-7.8-1c2.6,0,5.7,0,8.3-0.5c9.9,2.1,13,1.6,25.9,2.6
			c-7.3,1-13.5-1-20.8,0.5c4.7,1,9.3,0.5,14,1.6c-4.2-1,15.6-1.6,23.4-1.6c2.1,0.5-2.1,0.5-4.7,1c5.2,1,10.9,0,16.1,1
			c3.6-0.5-5.2-1-3.6-1.6c15.1-1,28.5,0.5,43.6,0c0.5-1.6-10.4,0-16.1-0.5c-1-0.5,0-0.5-1.6-0.5c10.4,0.5,13.5-0.5,25.4-1
			c0-1.6-10.4-1-14.5,0c-9.3-0.5,9.9-1.6-3.6-1.6C1996,819.7,2010.6,819.7,2000.7,818.7z M1217,801.5c-7.8,1-15.1,0-22.8-0.5
			C1202,800.5,1209.7,801,1217,801.5z M586.9,789.1c6.7-1,20.8,0,10.9-1.6c11.9-0.5,23.4,0,35.3,0.5c-6.2,1-7.3,0.5-13,2.1
			c-3.1-0.5-6.7-1-9.9-1c-3.1,0.5,1.6,0.5-0.5,1C602,789.1,593.7,790.6,586.9,789.1z M2970.2,809.8c0.5,9.9,1.6,8.8,0.5,19.7
			C2970.2,829,2969.7,816.6,2970.2,809.8z M2997.7,812.9c0.5,23.4,1,25.9,2.6,47.2c-1,5.7-0.5,12.5,0,20.2c-1.6,0-3.6,0.5-5.2,0.5
			c-12.5-1-15.1-1-22.3-2.6c-18.7,1-5.7,2.1,0,3.1c-31.1-0.5-28-3.1-10.9-4.2c11.9,1,23.9,0.5,35.3,0c-0.5-14.5-1-28.5-0.5-41
			c1-11.4,0.5,14.5,1.6,9.3C2996.7,833.2,2996.7,812.4,2997.7,812.9z M2337,85.8c-7.8,1-15.1-0.5-22.8,0
			C2322.5,85.3,2329.7,85.3,2337,85.8z M1684.6,88.4c-3.1-1-17.1-0.5-14-2.1C1676.3,87.4,1691.4,86.9,1684.6,88.4z M1191.6,85.8
			c5.2,0.5,11.4-0.5,16.6,0.5C1203.5,87.4,1189,86.9,1191.6,85.8z M1201.4,886.6c8.8,0,18.2,0,26.5,1
			C1220.6,887.2,1202,887.7,1201.4,886.6z M1031.7,869c1-1,37.9-0.5,30.6,1C1053,869,1041.6,870.6,1031.7,869z M1759.4,876.8
			c-2.1,0.5-1.6,1-6.7,1c-3.1-0.5-6.7-0.5-9.9-1C1748.5,876.8,1754.2,876.3,1759.4,876.8z M808,833.2c18.7,0,27.5,0,43.6,0.5
			C836.6,834.2,822.1,833.7,808,833.2z M1207.7,835.3c6.2,0,23.4,0,22.3,1C1223.8,835.8,1206.6,836.3,1207.7,835.3z M1411.6,837.9
			c0-0.5,7.8-2.1,13-1C1428.2,837.9,1414.7,838.9,1411.6,837.9z M1928.6,821.8c4.2,0.5,2.6-0.5,6.7-0.5c5.7,1.6,13-0.5,18.2,1
			C1946.2,823.3,1928.6,822.8,1928.6,821.8z M1639.5,814c5.7,0,11.4-1,16.6,0C1646.7,815.5,1640.5,814,1639.5,814z M1356.6,804.1
			c1-1,14-1,20.8,0C1370.1,805.7,1363.4,804.6,1356.6,804.1z M1296.9,803.6c7.3-0.5,24.9,0,24.4,1
			C1313.5,804.1,1304.7,805.2,1296.9,803.6z M1704.9,858.1c-13.5,0-28,0.5-41.5,0C1676.8,856.5,1698.6,857.1,1704.9,858.1z
			 M1121.5,785.4c1.6-1,15.6-1,22.8,0C1136,787,1128.8,786.5,1121.5,785.4z M1387.2,821.3c6.7,0,14-0.5,20.8,0
			C1402.3,821.8,1385.7,822.3,1387.2,821.3z M1702.8,862.8c2.6,0.5,16.1-0.5,11.9,1C1709.5,863.3,1696,863.8,1702.8,862.8z
			 M1688.3,863.3c-3.1-1.6-6.2-0.5-14-1c3.6-0.5-4.2-1-1.6-1c9.9,0,6.7,1,16.6,0c2.1,0.5,4.2,0.5,5.7,1
			C1692.4,862.3,1693.4,862.8,1688.3,863.3z M1649.9,859.7c6.7,0,14-1,20.8,0C1663.3,861.2,1656.6,860.7,1649.9,859.7z M1395,833.2
			c-4.2,0.5-8.3,0.5-12.5,0.5c9.3-0.5,4.2-3.1,17.6-2.6C1403.3,832.2,1387.8,832.2,1395,833.2z M1585.5,860.2c3.1-0.5,5.7-0.5,8.8-1
			c2.1,0.5,4.2,0.5,5.7,1C1594.8,861.2,1590.2,860.2,1585.5,860.2z M1705.9,876.3c2.6,1.6,8.3,0,16.6,0.5
			C1723,878.3,1691.9,877.3,1705.9,876.3z M1349.4,833.2c-13-1-30.1,1-36.8-1c-1.6,1.6-16.1,1.6-22.8,0.5c20.2,0,17.1-2.1,36.3-3.1
			c7.3,2.1,7.8,0,11.9,1.6c10.4-0.5,32.2-1.6,35.3,0c-1.6,0-13,0-8.3,0.5c7.3-0.5,14,0,20.8,0.5c-5.7,1-10.9,0-16.6-0.5
			C1361.8,832.7,1349.9,832.2,1349.4,833.2z M1133.5,802c0.5-1,12.5-1,19.2-0.5C1152.1,802.6,1139.7,802.6,1133.5,802z
			 M1393.5,837.3c-2.6-0.5-5.2-0.5-7.8-1c4.2-0.5,8.8-1,12.5-0.5C1388.8,836.3,1402.8,836.8,1393.5,837.3z M1634.3,873.7
			c6.7-1,11.9,1,18.7,0c6.2,0.5-1.6,1.6,9.9,1.6C1647.8,876.8,1646.2,873.7,1634.3,873.7z M1517.5,858.6c6.7-0.5,13-1.6,19.2-0.5
			C1530.5,858.1,1523.7,859.7,1517.5,858.6z M1596.9,868.5c6.7,1.6-14.5,3.1-23.9,2.1c0.5-1,6.2-1.6,10.9-1.6
			C1583.9,870,1592.2,869.5,1596.9,868.5z M1222.7,828.5c0,1.6,8.3,0.5,12.5-0.5c5.2,0,7.3,0.5,7.8,1c15.1-1,28.5,0.5,43.6-0.5
			c6.2,0.5-1.6,2.1,9.9,1c6.7,0.5,6.2,2.6-4.7,2.1c2.6-0.5,4.7-0.5,0.5-1c-2.6,2.6-26.5,2.1-40.5,2.6c-3.1-0.5-6.7-1-9.9-1
			c-8.3,0-17.1,1.6-24.9,0.5c4.2-1.6,23.4-1.6,33.7-1.6c-2.1-0.5,1-0.5,4.2-0.5c-6.7,0-13.5-1-20.2-1c-10.9,1.6-21.8,2.6-31.7,1
			C1220.1,830.6,1216,829,1222.7,828.5z M1503,859.1c-4.2,0.5,5.2,1-0.5,1.6c-3.6-1-8.3,0.5-12.5-0.5c6.7-1,5.2-1.6,13.5-2.6
			c2.1,0.5,4.2,0.5,5.7,1C1507.1,858.6,1505.1,859.1,1503,859.1z M912.9,782.8c-2.6-1,11.4-1.6,15.1-0.5
			C922.7,782.3,917.5,783.9,912.9,782.8z M1005.8,800c5.7-1.6,27,0.5,18.7,0.5C1018.2,800,1011.5,801,1005.8,800z M1522.2,868.5
			c3.1-0.5,5.7-0.5,8.8-1c2.1,0.5,5.7,0.5,3.6,1C1530.5,868.5,1529.4,870,1522.2,868.5z M1445.4,862.8c4.2-0.5,3.1-1-1.6-1
			c3.6-0.5,7.3-1,10.9-1c6.2,0,11.9,1,18.2,1.6C1464.1,861.7,1454.7,862.3,1445.4,862.8z M1517.5,869c-4.2,0.5-3.1,1.6-3.1,2.1
			c-4.2-0.5-8.3,0.5-12.5-0.5c17.1-1.6-14.5-1-9.3-2.1c8.3,1,28-0.5,28.5,1C1520.1,869.5,1519.1,869,1517.5,869z M1409.6,858.6
			c2.6,2.1,13.5,0,22.3,1C1426.2,861.7,1403.3,860.7,1409.6,858.6z M1393.5,858.1c-7.3-0.5-1.6-1.6-7.8-1c-3.6,0.5,1,1-2.6,1.6
			c-2.6-0.5-5.2-0.5-7.8-1c3.1-0.5,7.8-1,2.6-1c5.2-0.5,10.4-1,14.5-0.5c-2.6,0.5-4.7,0.5-0.5,1c7.8-0.5,3.1-1,8.8-1.6
			C1410.1,856.5,1395.5,857.6,1393.5,858.1z M1337.9,851.4c9.3-1,18.2-1,27,0.5C1355.6,852.4,1346.8,852.4,1337.9,851.4z
			 M1486.4,869c-10.4,0.5-20.2-1-31.1-0.5c8.8-1,14.5-0.5,27.5-0.5C1480.7,868.5,1483.3,868.5,1486.4,869z M1169.8,831.1
			c3.1-0.5,5.7-0.5,8.8-1c5.2,1,10.4,1,16.6,0c2.1,0.5,4.2,0.5,5.7,0.5C1190,831.6,1180.2,831.1,1169.8,831.1z M1441.7,866.9
			c6.2,0.5,12.5,0,18.2,1C1454.7,868.5,1439.7,868,1441.7,866.9z M903,797.9c11.4-0.5,21.8,0.5,33.2,0
			C931.6,799.5,912.9,798.4,903,797.9z M1484.3,874.2c1,0.5-4.2,1-6.7,1.6c-5.7,0-10.9,0-16.6,0c-2.1-0.5,1.6-1.6,3.1-2.1
			c-10.4,1.6-19.7,1-29.6,1.6c-8.3-1.6-16.6-1.6-30.1-2.6c6.7-1,28.5,0,41.5,0c-3.6-0.5-3.1-1-1.6-1c12.5,0,15.6,0.5,9.9,1
			c9.9,0,39.4-1,47.2,1.6C1491,873.7,1493.6,874.2,1484.3,874.2z M1379.5,861.7c3.6-1,7.8-2.1,19.2-1
			C1384.6,860.2,1393.5,861.7,1379.5,861.7z M1456.8,871.1c-4.7-0.5-9.9,0-14-1C1448.5,869,1463.5,870,1456.8,871.1z M1140.7,831.1
			c-3.6,0-6.7,0-10.4,0c-3.1-0.5-6.7-1-9.9-1.6c-14.5,1-17.6,0-33.7,1c4.2-0.5-2.6-1,4.7-1.6c7.8,1,16.6,0.5,24.9,0
			c-3.1-1-3.6-1.6,5.2-2.6c6.2,0.5,12.5,0.5,18.2,1.6c-6.7,1-12.5,0-19.2,1C1123.6,830.6,1139.7,830.1,1140.7,831.1z M1135,829.6
			c7.3-0.5,14-0.5,20.2,0.5C1148.5,830.6,1141.8,830.1,1135,829.6z M1403.8,868.5c-8.8-0.5,5.7-1-3.6-1.6c5.7-0.5,11.4-0.5,16.6,0
			C1416.8,868,1409,868.5,1403.8,868.5z M816.9,790.6c5.7-0.5,11.4-1,16.6-0.5C827.8,791.1,822.1,790.6,816.9,790.6z M1415.3,870.6
			c-4.2-0.5-2.1-1-5.7-1c5.2-0.5,9.9-0.5,14.5,0.5C1421,870,1418.4,870.6,1415.3,870.6z M1238.8,850.8c-3.6-0.5-5.7-1-5.7-1
			c9.3,0,18.2-1,27,0.5C1252.3,850.8,1246.1,849.8,1238.8,850.8z M1381,868.5c-10.4-1-22.3,0.5-32.7-0.5c10.9,0.5,22.8-1.6,33.2-0.5
			C1378.4,867.4,1383.1,868,1381,868.5z M1333.3,862.3c-3.1,0.5-5.7,0.5-8.8,1c-2.1-0.5-7.3-1-5.7-1.6
			C1323.9,862.8,1329.1,861.2,1333.3,862.3z M1390.4,871.1c-3.1,0.5,13,1.6,3.1,2.1c-10.4,0,0.5-1-9.9-1.6c3.6-0.5,7.3-1,10.9-1
			c2.1,0.5,14.5,0.5,9.9,1C1399.7,871.6,1395,871.1,1390.4,871.1z M1064.4,829c8.8,0.5,8.3-1,18.7,0
			C1077.9,830.1,1062.3,830.6,1064.4,829z M1277.7,861.2c7.8,0,15.6-0.5,22.8,0C1292.8,862.3,1285.5,861.7,1277.7,861.2z
			 M728.1,788.6c5.2-0.5,9.9-1,14.5,0C742.6,789.6,733.3,789.6,728.1,788.6z M1218,856c7.3,0.5,15.1,0,22.3,1
			C1233.6,857.6,1217,856.5,1218,856z M1019.3,829c-9.9,0-19.2-0.5-28.5-0.5C999.6,827.5,1023.9,827,1019.3,829z M1306.8,876.8
			c8.8-1-1-0.5-3.6-1c5.2-1,9.3,0.5,14.5,0c-6.2-1.6-13.5-1-20.2-1.6c-1.6-0.5-8.8-2.1,2.6-1.6c-4.7,1,7.8,0.5,9.9,1.6
			c8.8-1.6,16.6,0.5,24.9-0.5c5.7,1,9.9,1.6,20.2,1.6c3.6-0.5-4.2-1-1.6-1c17.6,1.6,6.7,2.6-1.6,4.7c-4.7-0.5-1-1-1.6-1
			c-3.6,0.5-6.7-0.5-10.4-0.5c3.6,0.5,5.7,1,5.7,1.6c-7.8,0.5-13,0-10.9,1c-4.7,0-9.9,0-14-1c3.1-0.5,8.3,0,6.7-0.5
			C1320.8,877.3,1313.5,877.3,1306.8,876.8z M1248.1,868c0,1-7.3,0.5-13,1c-3.1-1.6-15.1-0.5-24.4-1c9.9-1.6-8.8,0-11.9-1.6
			c9.3-0.5,17.6,0.5,27,0.5c16.6-1.6,13.5-4.2,30.6-3.1C1244,863.8,1228.9,866.9,1248.1,868z M657,789.6c-1.6-0.5,10.9-1,2.6-1.6
			c-11.4,0.5-6.2,1.6-11.4,2.1c-3.1-0.5-6.7-0.5-9.9-1c6.7-2.1,15.6-2.1,22.3-3.6c14,2.1,17.1,2.1,32.2,2.6
			C684,789.1,671.5,790.1,657,789.6z M969.4,828.5c3.6-1,10.9-1,19.2-0.5C981.9,828.5,975.7,828.5,969.4,828.5z M1353.5,879.9
			c4.2-0.5-5.2-1,0.5-1.6C1363.9,878.3,1363.4,880.4,1353.5,879.9z M1210.3,864.3c5.7-0.5,11.4-1,17.1-2.1c2.6,0.5,5.7,0,8.3,0.5
			C1237.2,864.3,1219.6,865.4,1210.3,864.3z M952.8,828c-5.2-0.5-10.4-0.5-5.7-1c4.2,0.5,8.3-0.5,12.5,0.5
			C957.5,827.5,955.4,828,952.8,828z M1087.8,849.3c-10.9-1,8.8-2.1,15.1-1C1097.6,848.8,1093,848.2,1087.8,849.3z M1291.2,874.7
			c-4.2,0-11.9-1-5.7-1.6C1290.7,873.7,1295.9,874.2,1291.2,874.7z M939.9,829.6C941.4,829.6,942.5,829,939.9,829.6
			c-3.6,0-6.7,0-10.4-0.5c7.3-0.5,14-1,20.8-0.5C947.1,829,943.5,829.6,939.9,829.6z M944,834.2c6.7,1,14-1,20.8,0
			C959.1,835.3,942.5,835.8,944,834.2z M1353.5,890.3c4.2-1-8.3-0.5-6.2,0c-5.2-0.5-2.6-1-1.6-1.6c9.3,0.5,7.8-0.5,20.8,0
			C1363.4,889.8,1359.2,890.3,1353.5,890.3z M516.9,787.5c5.7-1,10.9,0,16.6,0C527.8,788.6,522.1,788.6,516.9,787.5z M959.6,847.7
			c5.2-0.5,9.9-0.5,14.5,0.5C968.9,848.8,964.3,848.8,959.6,847.7z M784.2,824.9c-9.3-1,3.1-2.1,8.8-1
			C786.8,824.9,791.4,824.9,784.2,824.9z M924.8,846.7c-9.3,1-29.1,0.5-30.6-1c8.3,1.6,18.2,0,27,0
			C917.5,846.2,926.9,845.6,924.8,846.7z M412,785.4c9.3-0.5,18.2-0.5,27,0.5C429.7,786.5,413.1,787,412,785.4z M1170.8,885.1
			c4.2,0.5,18.7,0.5,16.1,1.6C1182.2,887.2,1168.2,886.1,1170.8,885.1z M1002.7,870c-6.2-1.6-13.5-0.5-20.2-1.6
			c7.8-1,15.1,0.5,23.4-1c4.2,0.5,8.3,0,11.9,1C1007.9,869,1009.9,869,1002.7,870z M716.2,833.7c-7.8-1-10.4-1.6-1-2.1
			c6.2,0,7.8,1.6,18.2,1.6C727.1,833.7,722.4,832.7,716.2,833.7z M1022.4,882c7.8-1,16.1-1.6,23.4-1C1038,882,1029.7,883,1022.4,882
			z M853.7,858.1c5.2-0.5,9.9-0.5,14.5,0.5C863.1,859.1,858.4,858.6,853.7,858.1z M911.8,868c7.8-0.5,15.6-1,22.8,0
			C926.9,868.5,919.6,868,911.8,868z M859.9,863.3c-10.4-1-22.3,0.5-33.2,0c7.8-1.6,20.2-1,35.8-1c2.1-0.5,1.6-1,6.2,0
			C868.2,862.3,865.6,862.8,859.9,863.3z M689.2,844.1c10.9-1,21.3-1,31.1-0.5C709.9,844.6,699.6,844.1,689.2,844.1z M974.1,884.1
			c5.7-0.5,11.4-0.5,16.6-0.5c-4.2,1,0.5,1.6-5.2,2.6C977.2,885.6,981.4,885.1,974.1,884.1z M1007.3,883.5c3.1,1,8.3,0.5,16.1,1.6
			c-14,0-26.5,3.1-33.7,1C1002.1,885.6,1001.6,884.6,1007.3,883.5z M973.1,882c4.2,1,19.2,0,16.1,1c-7.8,0-15.6,0.5-22.3-1
			c4.2-0.5,3.1-1-1.6-1c7.3-0.5,14-0.5,20.8-0.5C982.4,880.9,969.4,880.9,973.1,882z M834,866.4c5.2,0.5,11.4-0.5,16.6,0.5
			C845.4,868,830.9,867.4,834,866.4z M858.9,866.4c-6.2,0.5,5.7,1-2.6,1.6C847,868,850.6,866.4,858.9,866.4z M812.7,861.7
			c-5.7,1-11.4,0.5-17.1,1c-5.2-1-10.9-1-16.1-1c8.8-0.5,5.2-0.5,13-1.6c3.1,1,5.7,1.6,14.5,0.5
			C810.6,860.7,812.7,861.2,812.7,861.7z M496.1,823.3c6.2-1,15.1-0.5,15.1-1.6c1.6,0,2.6,0.5,4.2,0.5s3.1,0,4.2,0
			C515.8,823.3,504.9,823.8,496.1,823.3z M241.3,786c-5.2-0.5-10.4,0-9.9-1C237.1,784.4,247.5,785.4,241.3,786z M953.9,883
			c6.2,0,12.5,0,18.2,1C966.3,885.1,951.8,883.5,953.9,883z M538.7,832.2c8.3-0.5,16.6-0.5,24.9,0
			C554.8,832.7,546.5,832.7,538.7,832.2z M874,880.9c4.2,0.5,2.6-0.5,6.7-0.5c8.8,0.5,8.8,1.6,20.8,0.5c1-1-11.9-0.5-5.7-1.6
			c8.3,0,13,0.5,16.1,1.6C899.4,882,877.1,882.5,874,880.9z M596.8,841.5c-8.8-0.5-18.7,1-27-0.5c7.8-1,15.6-0.5,23.4-1
			C598.4,840.5,600.4,841,596.8,841.5z M751.5,864.3c-4.2,0-8.3-0.5-11.9-1C745.8,862.3,757.7,863.8,751.5,864.3z M842.8,880.4
			c3.1-0.5,3.6-0.5,4.7-1c4.2,0,8.3,0.5,11.9,1C853.7,880.9,848,880.9,842.8,880.4z M710.5,863.8c6.2,0,13-1.6,19.2-0.5
			C722.9,863.8,716.7,864.3,710.5,863.8z M651.8,859.1c8.3-1,10.9,0.5,15.1-1c3.6,0.5,5.7,1,5.7,1
			C665.3,860.2,658.6,860.2,651.8,859.1z M697.5,860.2c-7.8-1-17.1,1-24.4-0.5C680.4,858.1,697.5,858.6,697.5,860.2z M814.8,877.3
			c6.2-1,10.9,0,16.6,0.5C825.7,878.9,820.5,877.3,814.8,877.3z M681.9,862.8c5.7-1,11.4,0,16.6-0.5
			C698,863.3,687.6,863.3,681.9,862.8z M656,864.3c11.4-1,15.6-1,17.6-2.6c7.8,0,4.7,1,7.8,1.6c-5.7,1-11.4,0.5-17.1,1
			c2.6,0.5,8.3,0,5.7,1c-13,0.5-18.2-0.5-26.5-1.6c2.1-0.5,1.6-1,6.7-1C658.6,863.3,653.4,863.8,656,864.3z M626.4,861.7
			c14-1,28-0.5,41.5-0.5C664.8,863.8,639.9,862.3,626.4,861.7z M817.9,885.1c10.4-0.5,20.8,0.5,31.1,0.5
			C838.7,886.1,827.8,886.1,817.9,885.1z M758.7,877.3c1-0.5,2.1-2.1,10.9-1C769.6,876.3,763.9,877.8,758.7,877.3z M771.2,883
			c-11.4-0.5,8.8-1,2.6-1.6c-5.2-0.5-11.4,1-16.6,0c11.4-1,22.3-0.5,33.2-0.5C787.8,882,776.4,881.5,771.2,883z M610.8,858.6
			c-14,1.6-27.5-1-21.8-2.6C594.7,857.1,593.7,857.6,610.8,858.6z M607.2,861.7c3.6-0.5,7.3-1,10.9-1c2.1,0.5,6.2,0.5,3.6,1
			C617.6,860.7,611.9,863.3,607.2,861.7z M685.6,874.2c-5.7-0.5-0.5-1,2.6-1.6c2.6,0.5,5.7,0,8.3,0.5
			C692.8,873.2,689.2,873.7,685.6,874.2z M718.3,879.9c-4.2-1-3.6-2.1,3.1-2.6C730.7,878.3,726,879.9,718.3,879.9z M616.5,864.3
			c-6.7,1-16.6-0.5-16.1-1C611.3,862.3,607.7,863.8,616.5,864.3z M683,880.4c-3.1-0.5-6.7-0.5-9.9-1c10.4-0.5,11.9,0.5,19.2-1
			c2.6,1.6,10.4,0.5,18.2,1.6C701.1,880.4,692.3,879.4,683,880.4z M625.9,877.3c12.5,1.6,37.4-0.5,43.1,1.6
			C657,878.9,623.3,879.9,625.9,877.3z M638.3,877.3c4.2-0.5-2.6-1,4.7-1.6c3.1,0.5,6.7,0,9.9,1C644,877.3,647.7,877.8,638.3,877.3z
			 M565.7,877.8c-4.7-1-9.9,0-14-1c5.7-0.5,11.4-0.5,16.6-0.5C565.7,876.8,567.7,877.3,565.7,877.8z M386.1,860.2
			c7.3,0,29.1-1,22.3,1C402.7,859.7,385.1,861.2,386.1,860.2z M185.2,832.7c-9.3-0.5,2.6-2.1,8.8-1.6
			C188.4,831.6,193,832.2,185.2,832.7z M391.8,861.2c5.2-0.5,9.9,0,14.5,0.5c-5.7,0.5-5.7,2.1-10.9,1.6
			C397,862.8,392.3,862.3,391.8,861.2z M384.5,863.8c-10.4-0.5-0.5-2.6,6.7-1.6C391.3,862.3,393.4,863.3,384.5,863.8z M465,875.7
			c-5.7-1.6-12.5,0.5-18.2-1c10.9-0.5,21.3-0.5,31.1-0.5C473.3,874.7,469.1,875.2,465,875.7z M384,865.4l8.8-1l5.7,1
			C393.4,866.4,388.7,865.9,384,865.4z M348.7,860.2c-10.9,1-8.8-1-20.2-1C335.2,859.1,348.2,859.7,348.7,860.2z M322.3,859.1
			l-7.8-1c4.7-1,19.7-1,16.6,0C325.4,857.6,322.8,858.6,322.3,859.1z M118.3,833.2c5.2,0,9.3,0.5,14,1c-9.3,0-18.7,0-28,0
			c0-20.2,0-41,1-60.7c1,4.7,0.5,8.3,0.5,12.5c-0.5,4.2-0.5,8.3,0,12.5c0.5-5.7,0.5-10.4,1.6-6.2c0,8.8-1,5.2-2.1,14.5
			c0.5,4.2,0.5,8.3,0.5,13c0,4.2-0.5,8.8,0,13c0.5,0,1,0,1.6,0h-1c0-5.2,0-10.4,1-15.6c0.5,3.6,0,8.3,1,11.9c0,1,0,2.1,0,2.6
			c2.1,0.5-4.7,1.6,4.2,1c6.7-0.5-4.7-1,4.2-1.6c4.2,0,7.8,0,11.4,0.5C126.1,831.6,116.7,832.2,118.3,833.2z M347.2,863.8
			c-9.3-1.6-19.2-0.5-28.5-1c5.7-1-1-2.1,11.4-2.1c9.3,0.5,1.6,1.6,3.1,2.1c6.2-0.5,12.5,0,19.2-0.5
			C359.1,862.8,353.9,863.3,347.2,863.8z M417.2,874.7c7.3-0.5,14.5-1.6,21.3-1C431.2,874.2,424,875.7,417.2,874.7z M270.4,853.4
			c3.1-0.5,5.7-0.5,8.8-1c2.1,0.5,4.2,0.5,5.7,1C279.7,853.9,275,854.5,270.4,853.4z M206,859.1c-3.6,0-6.7,0-10.4-0.5
			c15.6-1,22.3,2.1,30.1,2.6c3.6-0.5,7.3-1,10.9-1c15.6,1.6,31.1,1.6,47.2,1c2.1-1,8.8-2.1,13.5-2.6c0.5,2.1,7.8-0.5,16.6,0.5
			c-13.5,1-24.4,2.1-32.7,3.6c-12.5-2.1-37.4,0-54,0c2.1-0.5,13.5-1,8.8-1.6c-7.8,0.5-15.6,0.5-23.4,1c2.6,0.5,8.3,0,5.7,1
			c-7.3-1-26.5,0.5-26.5-1c9.9,0.5,25.9-1,17.6-2.6c-1.6,1.6-28.5,0.5-29.1,0C188.4,860.2,210.2,861.2,206,859.1z M196.7,861.7
			c0,0.5-9.3,1-15.1,1c4.2-0.5-9.3-0.5-11.9-1C179,861.2,187.3,861.7,196.7,861.7z M417.8,874.2c-10.4,0.5-20.8,0-31.1-0.5
			C396.5,873.7,415.2,873.2,417.8,874.2z M336.3,864.8c4.2,0.5,8.3-0.5,12.5,0.5C345.1,866.9,332.1,865.9,336.3,864.8z M297.3,864.3
			c5.2-0.5,20.8-1,18.7,0.5C309.8,863.8,303.1,864.3,297.3,864.3z M367.9,874.2c0.5-0.5,10.9-1,16.6-0.5
			C378.8,874.7,373.6,874.2,367.9,874.2z M105.8,750.7c1,2.1,0,12.5,1.6,10.9C106.9,771.9,105.3,756.9,105.8,750.7z M105.8,727.8
			c1,0.5,0.5,10.9,2.1,17.6c-0.5,2.1-0.5,4.2-1,5.7C106.4,743.4,105.3,735.1,105.8,727.8z M241.3,863.3c5.2,0,20.8-1,18.7,0.5
			C253.8,863.8,247.5,864.3,241.3,863.3z M277.6,871.6c5.2-0.5,9.9-1,14.5,0C287,872.1,282.3,872.1,277.6,871.6z M153.6,860.2
			c-7.8,0-16.1,0-23.9,0c10.4-1,11.4-1.6,25.4-1.6C148.9,859.1,161.9,859.7,153.6,860.2z M93.9,857.6c-4.2-0.5-8.3-0.5-13-1V856v0.5
			l5.7-0.5c-1.6,0-2.6-0.5,0.5-0.5c14.5,1,5.7-1,13.5-1.6c6.2,0.5,13.5,0,18.7,1C105.8,856,104.3,857.1,93.9,857.6z M124,862.3
			c-3.6-0.5-11.4-1-7.8-1c6.7,0.5,14,0,21.3,0c7.3,0,14,0,20.8,0.5C142.2,862.8,134.4,861.2,124,862.3z M154.1,276.3
			c0.5-7.3,1.6-1.6,2.1,4.7c-0.5,2.6-0.5,5.2-0.5,8.3C154.6,289.3,154.1,281.5,154.1,276.3z M105.8,634.4c-0.5-7.3,0-14,0.5-20.2
			c1,6.7,2.6,7.8,1.6,19.2C106.9,626.6,106.4,622,105.8,634.4z M80.9,804.1c0,10.9-1,13.5-1.6,11.4c0.5,11.9,0.5,28,0.5,42.6
			c10.4,0.5,19.2,1,22.8,1.6c-7.8-0.5-16.1-0.5-23.9-0.5c0-17.6-0.5-34.8-1-46.7c0.5,4.2,1.6,0,2.1-5.7c-1-1-1-2.1-1-15.1
			c0.5-6.7,1-1.6,1-2.6c-1.6-6.7-0.5-6.7-0.5-17.6c-0.5,1.6-0.5,2.1-0.5,1.6c0-1,0-2.1-0.5-3.6c0-3.1,0-7.8,0.5-10.4
			c0.5,0,0.5,2.1,0.5,5.2c0,1.6,0,3.1,0.5,4.7c0,1,0,1.6,0.5,2.6c0,1,0,2.1,0.5,3.1C80.4,794.8,79.9,796.3,80.9,804.1z M216.4,879.4
			c-10.4-1-19.2,1-25.4,1.6c-8.3-1.6,4.7-1,9.3-2.6c3.6,1,8.3,0,12.5-0.5C217.9,878.3,220,878.9,216.4,879.4z M76.8,809.3
			c0-6.7,0.5-13,0.5-19.7c0-6.2,0.5-12.5,0.5-19.2v1v1.6v3.6c0,2.1,0,4.7,0,6.7c0,4.7,0,8.8,0,13.5
			C77.8,791.7,77.8,821.8,76.8,809.3z M127.6,874.7c0.5-0.5,16.6-2.1,25.4-1C144.8,873.7,135.4,875.2,127.6,874.7z M144.2,879.9
			c4.7-0.5,8.8-0.5,13.5-0.5c4.2,0,9.3,0,11.4-0.5c-0.5,0-1.6,0-2.1,0c-0.5,0-0.5,0-1,0c-0.5,0-1,0-1.6,0c-2.1,0-3.6,0-4.7,0
			c-2.6,0-2.6-0.5,1.6-0.5c3.6,0,10.4,0,16.1,0.5c4.7,0,8.8,0.5,8.3,1c-4.7,0.5-9.3,1-14.5,1c-1.6,0-2.6,0-4.2,0c-1,0-2.1,0-3.1,0
			c-1,0-2.6,0-3.6,0C155.7,879.9,150,879.9,144.2,879.9z M79.4,748.6c1-3.1-0.5-18.2,1-14C80.4,740.3,80.9,755.3,79.4,748.6z
			 M70,797.9c0.5,13.5,0,26.5,0.5,39.4C69.5,836.3,68.5,798.4,70,797.9z M110,877.8c5.7-0.5,6.7-0.5,8.3-1
			c8.3,0.5,35.3,0.5,31.1,1.6C137,877.3,121.9,878.9,110,877.8z M79.4,661.4c0.5,13,0.5,33.7,0.5,49.8c0.5-2.6,1-7.8,1.6-1.6
			c-2.1,1.6-0.5,8.8-1.6,20.2c-1-7.8-1-14-2.6-11.4C80.4,706,78.3,680.6,79.4,661.4z M154.6,176.1c-0.5,1,1,3.1,0,4.2
			C154.1,179.3,153.1,175.1,154.6,176.1z M106.4,487.5c1-3.6,1-7.8,0-12.5c1.6-7.8,3.1,14.5,2.6,25.9
			C107.9,488.1,107.9,488.6,106.4,487.5z M61.2,855c0,7.3,0,14.5,0,21.8c14,0,28,0.5,42.6,0.5c-4.2,0-7.8,0.5-11.9,0.5
			c-9.9-0.5-20.8-0.5-31.1-0.5C60.7,870,60.7,862.8,61.2,855z M87.7,629.2c0,8.3,0,27.5-1,28.5C87.7,650,86.1,630.3,87.7,629.2z
			 M83,647.9c1-10.4,0.5-21.8,1-32.7c1,12.5,0.5,34.8-0.5,39.4C84,651,83,648.4,83,647.9z M60.7,826.4c0.5,5.7,1-7.8,1-3.1
			c-0.5,9.3,0.5,19.2-0.5,28.5C60.7,843,60.2,834.7,60.7,826.4z M61.7,764.2c0,2.1,0.5,3.6,0.5,5.2v1.6v1.6c0,1.6,0,3.1,0,4.7
			c0,5.7,0,11.9-0.5,17.6c0-5.7-0.5-11.9-0.5-18.2c0-2.6,0-4.7,0-7.3C61.2,767.3,61.2,765.7,61.7,764.2z M79.4,644.8
			c-1-12.5,0-14,1.6-22.3c0.5,4.2,1,6.2,1,6.7c0,1-0.5,2.6-0.5,4.2C80.4,628.7,79.9,634.4,79.4,644.8z M58.1,792.7
			c0-4.7,0-9.9,0-14.5c0-3.6,0-7.3,0-10.9c0-5.7,0-10.9,0.5-16.1c0,10.9,2.1,7.8,2.1,17.1c0,2.6-0.5,3.6-0.5,5.2c0,1-0.5,0.5-0.5,0
			c-0.5-1-1-2.6-0.5,5.2c0.5,5.7,1-3.1,1.6,11.9C59.6,800,58.6,794.8,58.1,792.7z M61.7,735.1c0.5,1,1,3.1,1.6,8.8
			c-1,5.2,0,10.9-1,16.1c0-1.6-0.5-3.1-0.5-4.2C62.8,750.1,61.2,745.5,61.7,735.1z M80.4,574.7c0,9.9,2.1,37.4,0,33.2
			C81.4,597,79.4,585.1,80.4,574.7z M85.1,514c0.5,5.7,0.5,11.4,0.5,16.6C84.6,530.6,84,519.7,85.1,514z M82,510.9
			c-0.5,12.5,1,44.6-1.6,43.1C82,541,80.4,516.6,82,510.9z M88.7,440.8c1,5.7,0.5,11.4,0.5,16.6C88.2,457.4,88.2,446.5,88.7,440.8z
			 M85.1,453.8c2.1-10.9,0.5-23.4,1.6-34.8c1.6,7.3,0,30.1,0,43.6C86.1,456.9,85.6,461.6,85.1,453.8z M84,449.1
			c1.6-11.4-2.1-14-0.5-27c1,11.4,0.5,6.2,1.6,10.9C85.1,439.3,85.1,455.9,84,449.1z M85.1,379.1c1,6.7,1,13,0.5,19.2
			C84.6,397.2,83.5,385.3,85.1,379.1z M65.4,510.4c1.6,7.3,0.5,14,0.5,20.8C65.4,524.4,64.8,517.1,65.4,510.4z M64.3,514
			c0.5,4.7,0.5,19.2-0.5,16.6C64.3,525.4,62.8,519.2,64.3,514z M67.4,483.9c0.5,3.6,1-5.2,1.6-3.6c0.5,5.2,1,9.9,0,14.5
			C68.5,488.6,66.9,494.8,67.4,483.9z M61.7,483.9c0.5,1,1,9.3,2.1,7.3c-0.5-5.2,0-9.9,1-14c0.5,10.4,2.1,21.8,1,31.7
			C64.8,492.2,60.7,503.1,61.7,483.9z M89.7,304.3c1,4.2,0.5,18.2-0.5,14.5C89.7,314.2,88.7,308.5,89.7,304.3z M65.9,454.3
			c0.5,5.2,1,9.9,0,14.5C65.4,464.2,65.4,459,65.9,454.3z M84,326.6c0-9.9-0.5-28,1-30.6c-1-7.8,0.5-21.3-1-23.4
			c0.5-2.6,0.5-5.2,1-7.8c1,5.7,0,10.4,1,10.9c-0.5,11.4-0.5,17.6,1,21.3c-0.5,8.8-1,1.6-1.6,3.6c0.5,3.6,1,7.3,1,10.9
			C85.1,320.9,84.6,310.6,84,326.6z M85.6,252.9c1.6-10.9,2.6,14.5,1.6,21.3c-0.5-2.6-1-0.5-1-2.6C86.1,258.1,87.7,262.8,85.6,252.9
			z M84,229.6c1-9.9,2.1,1,2.6,7.3c-0.5,3.1,0.5,7.3-0.5,10.4C85.1,238.9,86.1,235.3,84,229.6z M90.3,178.7l0.5,5.7
			c0,1.6,0,3.1,0,4.7c0,3.1,0,6.2-0.5,9.3c-0.5-3.1-0.5-6.2-0.5-9.3c0-1.6,0-3.1,0-4.7C89.7,182.4,90.3,180.8,90.3,178.7z
			 M623.8,171.5c5.2-0.5,20.8-1,18.7,0.5c-5.2-0.5-13,0.5-13,1C625.9,172.5,623.8,172,623.8,171.5z M161.9,105.6
			c7.3,0.5,0.5,1.6-7.3,2.1c-7.8,0.5-17.6,0.5-17.1-1C148.4,107.1,147.4,105.6,161.9,105.6z M657,171.5c11.4-0.5,33.7-1,36.8,0.5
			c-14.5-1-6.7,1-13,2.1c-7.3-1-4.2-2.1-5.2-2.6C668.9,172.5,657,172.5,657,171.5z M721.4,171.5c-5.2,0-11.4,0.5-16.6,0
			C704.2,169.9,729.7,170.4,721.4,171.5z M163.4,85.3c-11.4,0.5-22.8,0.5-33.7,0C141.1,83.8,152.5,84.3,163.4,85.3z M202.4,83.8
			c6.2-2.1,9.9,0,16.6,0c-4.7-1.6,5.7-2.1,9.3-3.1c9.9,1-13,2.1-3.6,3.1c2.1-0.5,1.6-1,6.7-1c3.1,0,15.6,1,11.9,1.6
			c-11.4-1-57.1,3.6-45.7-0.5c-8.3,0-28,1-28.5-0.5C174.9,82.7,198.2,82.7,202.4,83.8z M215.9,81.2c-10.9,1-21.3,0.5-31.1,0.5
			C195.1,81.2,206,80.6,215.9,81.2z M859.9,168.4c8.8,0.5,29.6-1.6,31.1,0.5C881.2,168.4,862,169.9,859.9,168.4z M253.8,80.6
			c2.6,0.5,7.8,1,5.7,1.6c-9.9-1-14.5-0.5-19.2,0.5C234.5,81.2,246,81.2,253.8,80.6z M291.6,83.8c4.2,1,9.9-0.5,14,1
			C299.9,84.8,285.4,84.8,291.6,83.8z M277.6,78c5.2,0.5,6.7,1,3.6,1.6c-2.6-0.5-5.2-1-8.3-0.5c-2.1,0-4.2,0.5-6.2,0
			C270.4,78.6,274,78.6,277.6,78z M963.2,168.4c-2.1,0.5-1.6,1-6.7,1c-4.7-1-9.3-0.5-14-1C949.7,167.8,957,167.3,963.2,168.4z
			 M366.4,83.8c-1.6,0.5,8.8,0.5,9.9,1c2.6-0.5,0.5-1,2.6-1c10.9,0,14,1,5.2,2.1c-10.9-0.5-22.3,0-32.7-0.5
			C359.6,84.3,362.7,83.8,366.4,83.8z M1000.1,170.4l-7.8-1C999,168.4,1009.9,169.9,1000.1,170.4z M419.8,84.8
			c6.2-0.5,12.5-0.5,18.7,0.5C432.3,85.8,426.1,85.8,419.8,84.8C420.9,85.3,421.9,84.8,419.8,84.8z M1092.5,167.3
			c4.7,0.5,9.9,0,14,1c-3.1,0.5,1.6,1.6-6.7,1c4.7-0.5,0-1-5.7-1c1.6,0.5,1.6,1-0.5,1.6c-4.2-0.5-8.3,0.5-12.5-0.5
			C1091.9,168.4,1082.1,167.8,1092.5,167.3z M483.1,82.7c8.8,0.5,29.1-0.5,30.6,1c-6.2-0.5-12.5,0-18.7,0c3.1,0.5,6.7,0.5,9.9,1
			c-5.7,0.5-15.1,0.5-15.1,1.6C485.7,85.3,483.7,83.8,483.1,82.7z M1134,167.3c-3.1,0.5-1,1-6.7,1.6
			C1122.6,168.4,1124.6,166.3,1134,167.3z M526.2,84.3c9.9,1,8.3,2.1,4.7,3.1c-2.6-0.5-5.2-0.5-8.3-0.5
			C527.8,85.8,515.3,85.3,526.2,84.3z M1152.1,168.9c-5.2,0.5-9.9,1-14.5,0C1142.8,168.4,1147.5,167.8,1152.1,168.9z M553.2,83.8
			c-11.4,0-22.3,0.5-33.2,0c11.9,0,14.5-0.5,22.8-0.5c-1,0-1,0.5,1.6,0.5C548,83.2,550.6,83.2,553.2,83.8z M569.3,84.8
			c-2.6,0.5,2.1,1,1.6,1c-11.9,1-23.9,0.5-35.3,0c6.7-0.5,2.1-1.6,9.3-2.1C553.2,84.8,561.5,84.3,569.3,84.8z M1204.6,167.3
			c-7.8,0.5-13.5,1.6-11.4,2.1c-5.7-0.5-12.5,0-18.7-0.5c12.5-1.6-5.7-1,1-2.1C1184.8,167.8,1195.2,166.8,1204.6,167.3z M584.9,82.2
			c4.2,0.5,2.1,1,5.7,1.6c2.1,0,1-0.5,2.6-0.5c8.8,0.5,3.6,1-2.6,1.6c-2.6-0.5-5.2-1-8.3-0.5c2.1,0.5-1.6,0.5-4.7,1
			c-2.1-0.5-4.2-0.5-5.7-1C583.3,82.7,581.2,83.2,584.9,82.2z M612.9,85.8c7.3-0.5,14,0,20.8,0C625.9,86.9,612.9,87.4,612.9,85.8z
			 M659.1,83.8c6.2,0,13-0.5,18.7,0c-6.2,1-11.4,0-16.6,0.5c1,0.5,3.6,0.5,1.6,0.5C660.1,84.8,659.6,84.3,659.1,83.8z M705.8,85.8
			c-6.7-0.5-14,0.5-20.2-0.5C691.3,84.8,707.9,84.8,705.8,85.8z M701.6,86.4c2.1,0,4.2,0,6.2,0c5.2,0.5,6.7,1,3.6,1.6
			c-3.1-0.5-6.7,0-10.4-0.5C704.2,87.4,699.6,86.9,701.6,86.4z M749.4,86.9c-11.4,1-22.3,1-33.2,0.5C727.1,86.4,738,87.4,749.4,86.9
			z M756.7,84.3c-4.7,1.6-17.6,1.6-27.5,1C738.5,84.3,747.8,83.8,756.7,84.3z M807,87.9c2.1,0.5,0.5,1,5.7,1.6c-9.3,1-18.7,1.6-27,0
			C796.6,88.9,806.5,88.4,807,87.9z M930.5,84.8c-5.2,0.5,6.2,0,7.8,1c-4.2,0.5-17.6,0-14-1C928.4,85.3,926.9,84.3,930.5,84.8z
			 M1784.8,86.4c5.2,0.5,10.9,0,16.1,1c-8.8,1-17.1,1-25.4,1.6c-2.1-0.5-4.2-0.5-5.7-1C1781.7,87.4,1779.6,87.9,1784.8,86.4z
			 M1852.8,87.9c-8.8-1-21.3,1-18.2-1.6C1839.3,87.4,1855.4,86.9,1852.8,87.9z M2641.7,164.7c-19.7,1.6,20.2,0.5-1,3.1
			c-6.7-1-4.7-1-14-1.6C2628.7,165.8,2632.3,163.7,2641.7,164.7z M2619.9,167.3c-2.6-0.5-5.2-1-8.3-0.5c-3.1,0.5,0.5,2.1-8.8,2.1
			c-1.6-0.5,4.2-1-1.6-1.6c11.4,0,10.4-2.1,21.8-2.6C2625,165.8,2629.2,166.8,2619.9,167.3z M2056.7,86.9c6.7-0.5,12.5-0.5,18.7,0
			c0,1-8.8,0.5-15.1,1.6C2053.1,87.9,2060.9,87.4,2056.7,86.9z M2672.8,164.7c5.7,1,1.6,1.6,3.1,2.6c-5.2-0.5-11.4,1-16.6,0
			C2666.1,165.8,2667.1,165.8,2672.8,164.7z M2099.8,87.9c-9.9-0.5-7.8,1-16.6,0.5C2081.1,87.4,2102.9,85.8,2099.8,87.9z
			 M2679,164.7c4.2-0.5,8.3-0.5,12.5,0c-2.6,0.5-4.7,1-8.8,1C2685.3,165.8,2682.1,165.2,2679,164.7z M2709.6,83.2
			c-7.3-1-15.6,0.5-22.8,0C2693.6,82.2,2710.7,82.2,2709.6,83.2z M2742.9,83.2c-10.4,0-20.8,0.5-31.1-0.5
			C2722.6,81.7,2733,81.7,2742.9,83.2z M2757.9,82.2c-3.1,0.5-5.7,0.5-8.8,1c-2.1-0.5-4.2-0.5-5.7-1
			C2748.6,81.2,2753.2,81.7,2757.9,82.2z M2951,585.6c-1,6.2-1.6,1.6-2.6-5.2c-0.5-9.9-0.5-24.4-1.6-40c0.5-2.1,0.5-5.7,1-3.6
			C2949.4,547.2,2950.5,569,2951,585.6z M2951,641.7c-0.5,3.1-1,5.2-1.6,3.6c0-14-1-28-0.5-42C2949.4,616.2,2949.9,628.7,2951,641.7
			z M2996.7,309.5c-1-2.1-2.1-17.6-1.6-25.4C2996.7,292.9,2996.7,300.7,2996.7,309.5z M2953.1,705c-1-18.2-1.6-33.7-3.6-43.1l1-7.8
			C2951,666.6,2954.1,681.6,2953.1,705z M3003.9,457.4c0.5,3.6,0.5,7.3,0.5,10.9c-1,10.4-2.1-7.8-3.6,6.7c0-7.8-1-15.6,0-22.8
			C3000.8,465.7,3002.4,469.9,3003.9,457.4z M2926.6,832.7c-6.2-0.5,0.5-1.6-0.5-2.1c4.7,0.5,9.3,0,14.5,1
			C2935.9,832.2,2931.3,831.6,2926.6,832.7z M2972.3,784.4c-0.5,7.8,1.6,14,2.1,18.7c-0.5,11.9-1,1.6-1.6,4.2c0,3.1,0,5.7-0.5,8.3
			c0-14,0-25.9-1.6-20.8C2971.2,787.5,2971.7,783.4,2972.3,784.4z M2996.7,705.5c0.5-4.7-0.5-9.9,0.5-14.5
			C2998.2,695.7,2997.7,709.1,2996.7,705.5z M2996.7,763.6c-0.5-10.9-1.6-21.3-0.5-31.1C2996.1,742.9,2997.2,753.8,2996.7,763.6z
			 M2995.6,829c-0.5-9.9-1-20.2,0-28.5C2996.1,810.4,2996.1,820.2,2995.6,829z M3000.8,828c-1,8.8-1,12.5,0,15.1
			c-0.5,7.8-1,3.1-1-4.2s0-17.1,0-19.7C3000.3,824.9,3000.3,826.4,3000.8,828z M2614.2,870.6c0.5-1,10.9-1.6,17.1-1.6
			C2631.3,870,2619.9,871.6,2614.2,870.6z"/>
		<path class="st1" d="M375.7,880.9c2.6-0.5-5.2-0.5-1.6-0.5c-23.9,2.1-45.7,0.5-69,1.6c19.2,1,38.4,1,57.6,1c2.1-0.5-1.6-0.5-3.6-1
			C364.3,881.5,370,880.4,375.7,880.9z"/>
		<path class="st1" d="M1805.6,798.4c-6.7-0.5-14,0.5-20.8,0.5C1791.5,798.9,1798.3,799.5,1805.6,798.4z"/>
		<path class="st1" d="M1430.3,802c5.2-0.5,4.2-1,6.7-1c-3.1-0.5-7.3,0.5-10.4,0.5c-0.5-0.5-1-0.5-3.6-1
			C1417.3,801.5,1425.1,801.5,1430.3,802z"/>
		<path class="st1" d="M1728.2,840.5c8.8-0.5-13,0-11.9-1.6c-3.6,0.5-2.1,1-2.6,1.6C1722.5,841.5,1719.4,839.9,1728.2,840.5z"/>
		<path class="st1" d="M1597.4,824.9c5.2-0.5,5.2-1,0.5-1.6c-0.5,0.5-5.2,1-10.4,0.5C1582.9,824.9,1595.4,824.4,1597.4,824.9z"/>
		<path class="st1" d="M1620.3,831.1c0.5,0.5-3.1,1,1.6,1c5.7-0.5,7.8-1,8.8-1.6c-4.2-0.5-8.3,0.5-12.5,0
			C1616.1,831.1,1618.7,831.1,1620.3,831.1z"/>
		<path class="st1" d="M1333.8,793.7c-7.3-1-5.2,0.5-8.8,1c-6.2,0.5-0.5-0.5-7.8-1c-11.4,1.6-22.3,1-33.2,0.5
			c-2.1,0.5-2.6,1-4.7,1.6c9.3-0.5,28.5-1,43.6,0C1328.1,794.8,1333.8,794.8,1333.8,793.7z"/>
		<path class="st1" d="M1638.4,837.3c-25.4,0-42-0.5-67,1c3.1,0.5,8.8,0.5,5.7,1c8.8,0.5,5.7-0.5,15.1-0.5c-2.1,1,31.1,0.5,22.3,1.6
			C1619.2,841,1633.8,838.4,1638.4,837.3z"/>
		<path class="st1" d="M1227.4,784.9c-5.7-1-30.1-1-43.6-0.5C1198.8,784.9,1212.9,784.9,1227.4,784.9z"/>
		<path class="st1" d="M1901,880.4c0-1,7.3-0.5,13-1.6c-13-0.5-13,0.5-19.2,0.5C1892.7,880.4,1898.5,879.9,1901,880.4z"/>
		<path class="st1" d="M1584.5,836.8c-7.8,0-15.1-0.5-22.8,0.5C1568.4,838.4,1576.7,836.8,1584.5,836.8z"/>
		<path class="st1" d="M1249.2,798.4c5.7-0.5-0.5-1,2.6-1c-4.7-0.5-9.9,0-14.5,0C1233.1,797.9,1246.6,796.9,1249.2,798.4z"/>
		<path class="st1" d="M1692.9,865.9c-2.1,0,0.5,0.5,1.6,0.5c-4.7,0.5-8.3,0-13,1c8.3,0.5,16.1,1,24.9-0.5
			C1699.2,866.9,1696.6,867.4,1692.9,865.9z"/>
		<path class="st1" d="M1467.2,850.3c-10.9,0.5-8.8-0.5-20.2-0.5c-5.2,1-4.2,1-9.3,2.1C1446.9,850.8,1464.1,851.4,1467.2,850.3z"/>
		<path class="st1" d="M1016.7,793.2c3.6,1-10.9,0.5-8.8,1.6c4.7,0.5,9.9-0.5,14.5,0.5c-1.6-1,9.9-1.6,1-3.1
			c-5.7,0.5-11.4,0.5-16.6,0.5C1002.1,793.2,1014.6,792.7,1016.7,793.2z"/>
		<path class="st1" d="M979.8,792.2c-9.3-1-19.7,1-28.5-0.5c-6.7,1,5.7,0.5,1.6,1C961.7,792.7,970.5,792.7,979.8,792.2z"/>
		<path class="st1" d="M935.7,793.2c3.6,0.5,1.6,1,5.7,1.6c11.9-0.5,23.9-0.5,35.3,0.5c-1.6-2.1-21.8-0.5-30.1-2.6
			c-7.3,1-14,0.5-20.2-0.5c-12.5,0.5-12.5,1-23.4,1.6c4.2,0,8.3,0.5,12.5,0.5c5.7-0.5-0.5-1,2.6-1c2.1,0,4.2,0,6.2,0
			c2.1,0.5-5.2,1,3.6,1.6C932.6,794.3,935.2,793.7,935.7,793.2z"/>
		<path class="st1" d="M1477,892.4c2.1-0.5-0.5-0.5-2.1-0.5c-3.1-0.5-5.7-0.5-3.6-1c-3.1-0.5-7.3,0.5-10.9,0.5
			C1466.1,891.8,1471.8,891.8,1477,892.4z"/>
		<path class="st1" d="M1279.3,884.1c3.6-0.5-26.5-2.1-36.8-0.5c3.1,0,16.6-0.5,12.5,0.5C1262.2,884.6,1271.5,883,1279.3,884.1z"/>
		<path class="st1" d="M1175,879.9c-8.3-0.5-11.9-2.6-24.4-1c1.6,2.1,22.8,0.5,19.7,2.6C1179.6,880.9,1165.6,880.4,1175,879.9z"/>
		<path class="st1" d="M782.1,839.9c4.7-1-7.8-0.5-9.9-1c-4.2,0.5-2.1,1-6.7,0.5c-2.1,0-1,0.5,0,0.5c1.6,0,2.6,0.5,4.2,0.5
			c-2.1-0.5,10.9-1.6,6.7-0.5C779.5,840.5,777.9,839.9,782.1,839.9z"/>
		<path class="st1" d="M941.9,876.3c0-1-17.6-0.5-24.4-1c3.1-1.6-13.5-2.6-19.7-3.1c0,1.6,5.2,3.1,8.8,4.2c2.6-2.6,13,0.5,27,0.5
			C934.7,875.7,936.8,875.7,941.9,876.3z"/>
		<path class="st1" d="M875.5,871.1c-2.6-1-23.4-0.5-32.7-1c-6.7,1,14.5,0.5,7.8,1.6C854.2,871.1,866.7,870,875.5,871.1z"/>
		<path class="st1" d="M894.7,875.2c8.3-0.5-0.5-1-4.2-0.5c-3.6-0.5-3.6-1-1.6-1c-3.1-0.5-6.7,0-10.4-0.5c3.6,0.5,5.7,2.1-6.7,0.5
			c-2.6,0.5,3.1,1,5.7,1C883.8,874.7,889.5,874.7,894.7,875.2z"/>
		<path class="st1" d="M789.4,873.2c3.1,0.5,6.7,0,10.4,0.5c8.3-0.5-1-1,6.7-1.6C799.7,872.1,799.7,872.6,789.4,873.2z"/>
		<path class="st1" d="M693.9,883.5c1-1,3.1-0.5,8.8-1c-7.8-0.5,5.2-1-5.7-1.6c-2.1,0-4.2,0.5-6.7,0.5c3.6,0.5,7.3,1.6-4.7,1
			C680.9,883.5,692.3,883,693.9,883.5z"/>
		<path class="st1" d="M548,865.4c5.2,0.5,1-0.5-2.1-0.5c-1-0.5,1-1,4.7-1.6c-6.7-0.5-16.1,1.6-8.8,2.1
			C543.9,865.4,545.9,865.4,548,865.4z"/>
		<path class="st1" d="M320.2,832.7c-2.6-0.5-3.1,0-2.1,0c-6.7,1-11.9-1.6-18.7,0c6.2,1.6,13.5,0.5,20.2,0.5
			C321.7,833.7,317.1,833.2,320.2,832.7z"/>
		<path class="st1" d="M471.7,884.1c7.8,1,16.1,1,24.9,0.5c-9.3-1.6-19.2-1-28-2.1c-5.2,1.6-19.2,0.5-29.6,1.6
			C440.6,884.1,469.1,885.6,471.7,884.1z"/>
		<path class="st1" d="M445.8,882.5c-10.9,0-22.3,1-33.2,0c-3.1,2.6-32.2-1-47.7,0.5c-0.5,0.5,4.2,1,1.6,1c8.8,0,18.7-1.6,27,0.5
			c13.5-1,26.5,0,39.4,0c2.1-0.5-3.1-1-5.7-1C433.3,882.5,439,883.5,445.8,882.5z"/>
		<path class="st1" d="M466,888.2c-2.1-2.6-49.3-2.6-59.7-1.6C425.5,886.6,454.1,885.6,466,888.2z"/>
		<path class="st1" d="M311.9,884.6c-8.3-0.5-16.6-0.5-24.4-0.5C287,885.1,304.6,884.6,311.9,884.6z"/>
		<path class="st1" d="M200.3,883c-6.2-0.5-17.1-1-29.1-1c-4.2,0-8.3,0-12.5,0c-5.7,0-10.9,0-16.1,0c-10.9,0-21.3,0-30.1,0
			c7.3,0.5,15.1,0.5,21.8,0.5c6.7,0,11.9,0,14.5,1c1-0.5,3.6-0.5,6.7-0.5c1.6,0,3.6,0,5.7,0c2.1,0,3.6,0,5.7,0
			c5.2,0,10.9,0.5,15.1,0c7.8,0.5-6.7,1.6,5.7,1.6C184.2,883,189.9,882.5,200.3,883z"/>
		<path class="st1" d="M203.4,885.6c0.5-1.6-17.6-0.5-24.9-0.5c-4.7,1,7.8,0.5,9.9,1.6C196.1,885.1,194.6,884.6,203.4,885.6z"/>
		<path class="st1" d="M105.3,882c-16.1-0.5-31.7-1-47.7-1c0-9.9,0-19.2,0-29.1c-1.6,5.7-2.1,17.1-2.1,30.6
			C71.6,882.5,91.3,882,105.3,882z"/>
		<path class="st1" d="M59.6,636.5c0.5-6.2,0-12.5,0-22.8c-0.5,2.1-0.5,4.2-1,5.7C59.6,625.6,58.6,630.8,59.6,636.5z"/>
		<path class="st1" d="M56.5,517.1l1.6,13c0.5-10.4-1.6-11.4-0.5-22.8C56.5,502.6,57.1,515,56.5,517.1z"/>
		<path class="st1" d="M58.1,397.7c2.6-2.6-1-13,1.6-22.3c-0.5-0.5-0.5-1.6-1-4.7C57.6,379.1,58.6,388.4,58.1,397.7z"/>
		<path class="st1" d="M58.6,200.5c-0.5,5.2,0.5,1.6,0.5-2.1c0.5-3.6,1,2.1,1.6,2.6c0-3.6,0-6.7-0.5-10.4c0-1.6,0-3.6,0-5.2
			c0-1,0-2.6,0-3.6c0-1.6,0-3.1,0.5-4.2c-1-8.3-1.6-17.1-1.6-26.5s0.5-18.7,0.5-29.1c-0.5-17.1-1,7.8-1.6-9.3
			c0.5,10.9,0,21.3,0,31.7s0,20.8,0.5,31.7c0,3.1-0.5,4.2-0.5,4.7c0,0.5,0,0.5-0.5,1.6c0,0.5,0,1,0,1.6s0,0.5,0,1v0.5
			C58.1,185.5,58.6,194.8,58.6,200.5z"/>
		<path class="st1" d="M365.9,79.6c10.4,1,22.8-1,33.2,0c2.1-0.5-3.1-1-5.7-1.6C384,80.1,375.7,78,365.9,79.6z"/>
		<path class="st1" d="M584.4,79.1c0,1,25.9,1,27,0.5C602,79.6,592.7,80.1,584.4,79.1z"/>
		<path class="st1" d="M789.4,85.3c3.1-0.5,2.6-1.6,4.7-2.1c-5.2-0.5-10.9,0-16.6,0.5c3.6,1,8.3,0,12.5,0
			C793.5,84.8,776.4,84.3,789.4,85.3z"/>
		<path class="st1" d="M1589.1,82.7c-1.6,1.6,15.1,0.5,20.2,1c2.1,0,1.6-0.5,0-0.5c-1,0-2.6-0.5-4.2-0.5
			C1600,83.8,1594.8,82.7,1589.1,82.7z"/>
		<path class="st1" d="M2295.5,175.1c11.4,0.5,23.4,0,35.3,0.5c5.2-1.6,20.8-0.5,31.1-0.5c1.6,0,0-0.5,2.6-0.5c-2.1,0-1-0.5,0-0.5
			C2341.2,174.6,2318.3,173.5,2295.5,175.1z"/>
		<path class="st1" d="M2800.5,74.9c11.4-0.5-2.1-1.6,9.3-2.1c-2.1,0-4.2,0-6.2-0.5l-4.2,0.5C2809.8,73.9,2789.6,74.4,2800.5,74.9z"
			/>
		<path class="st1" d="M2894.9,77c19.7,1.6-1-2.1,19.2-1c7.8-1-16.1-1-22.3,0C2900.1,76,2902.2,76.5,2894.9,77z"/>
	</g>
	<g>
		<path class="st0" d="M351.3,320.4h80.4v187.4c0,25.9,4.2,44.1,12.5,55.5c8.3,10.9,22.3,16.6,41.5,16.6c19.2,0,33.2-5.7,41.5-16.6
			c8.3-10.9,12.5-29.6,12.5-55.5V320.4h80.4v187.4c0,44.1-10.9,76.8-33.2,98.6c-22.3,21.8-56.1,32.2-101.2,32.2
			s-78.9-10.9-101.2-32.2c-22.3-21.8-33.2-54.5-33.2-98.6V320.4L351.3,320.4z"/>
		<path class="st0" d="M664.8,320.4h80.4v251.2h141.2v60.7H664.8V320.4L664.8,320.4z"/>
		<path class="st0" d="M920.7,320.4h80.4v114.2l116.3-114.2h93.4l-150.5,147.9l165.6,164.5h-100.7l-124-123v123h-80.4V320.4
			L920.7,320.4z"/>
		<path class="st0" d="M1358.2,314.7c50.3,0,89.3,14.5,117.8,43.1c28.5,28.5,42.6,68.5,42.6,118.8s-14,89.8-42.6,118.9
			c-28.5,28.5-68,43.1-117.8,43.1c-49.8,0-89.3-14.5-117.8-43.1c-28.5-28.5-42.6-68.5-42.6-118.8c0-50.3,14-90.3,42.6-118.8
			C1268.9,328.7,1308.4,314.7,1358.2,314.7z M1358.2,372.8c-24.4,0-43.6,8.8-57.1,27c-13.5,18.2-20.2,43.6-20.2,76.3
			s6.7,58.1,20.2,76.3c13.5,18.2,32.7,27,57.1,27c24.9,0,43.6-8.8,57.1-27c13.5-18.2,20.2-43.6,20.2-76.3s-6.7-58.6-20.2-76.3
			C1402.3,382.2,1383.1,372.8,1358.2,372.8z"/>
		<path class="st0" d="M1553.8,320.4h80.4v251.2h141.2v60.7h-221.6V320.4L1553.8,320.4z"/>
		<path class="st0" d="M1818.5,320.4h80.4v311.9h-80.4V320.4z"/>
		<path class="st0" d="M1969,320.4h89.8l113.7,213.8V320.4h76.3v311.9H2159l-113.7-213.8v213.8H1969V320.4z"/>
		<path class="st0" d="M2318.8,320.4h80.4v281.8c0,38.9-10.4,68-31.7,87.2c-21.3,19.2-52.9,29.1-96,29.1h-16.1v-60.7h12.5
			c16.6,0,29.6-4.7,37.9-14c8.3-9.3,13-22.8,13-41L2318.8,320.4L2318.8,320.4z"/>
		<path class="st0" d="M2658.8,575.2h-125.6l-19.7,57.1h-81l115.7-311.9h96L2760,632.3h-81L2658.8,575.2z M2552.9,517.6h85.6
			l-42.6-124L2552.9,517.6z"/>
	</g>
</g>
</svg>
